<svg xmlns="http://www.w3.org/2000/svg" width="17" height="10.526" viewBox="0 0 17 10.526"><g transform="translate(-717.006 -477.985)"><path d="M734.006,481.091a.255.255,0,0,0-.028.058,1.41,1.41,0,0,1-.961,1.088q-1.431.522-2.864,1.039c-.508.185-1.018.366-1.523.559a.376.376,0,0,0-.188.179q-.726,1.631-1.437,3.267a.7.7,0,0,1-.441.412c-.708.249-1.412.509-2.116.767a.525.525,0,0,1-.575-.074.513.513,0,0,1-.134-.56c.2-.762.389-1.526.583-2.289.01-.042.017-.084.031-.155l-1.01.366c-.633.229-1.266.46-1.9.688a2.775,2.775,0,0,1-3.651-1.7q-.376-1.023-.75-2.048a.665.665,0,0,0-.036-.071v-.232a.666.666,0,0,1,.466-.4c.336-.109.669-.23,1-.362a.59.59,0,0,1,.658.114c.347.291.706.568,1.053.858a.232.232,0,0,0,.265.045c.824-.3,1.649-.6,2.474-.9l.769-.279-.181-.132c-.737-.527-1.472-1.057-2.21-1.582a.506.506,0,0,1,.131-.926c.712-.256,1.425-.509,2.133-.774a.7.7,0,0,1,.6.032q1.8.9,3.61,1.779a.4.4,0,0,0,.276.015c.387-.128.769-.274,1.153-.413a5.114,5.114,0,0,1,3.924.125,1.407,1.407,0,0,1,.847,1.013.422.422,0,0,0,.033.072Zm-15.855,1.716c.027.078.053.15.079.222.167.461.333.922.5,1.382a1.778,1.778,0,0,0,2.347,1.1c1.253-.448,2.5-.906,3.752-1.361a.529.529,0,0,1,.576.071.511.511,0,0,1,.137.559c-.189.725-.372,1.451-.557,2.177-.021.082-.037.166-.06.272.372-.134.712-.262,1.057-.379a.331.331,0,0,0,.213-.206c.474-1.085.955-2.168,1.426-3.255a.7.7,0,0,1,.439-.412c1.527-.548,3.052-1.105,4.578-1.656a.465.465,0,0,0,.366-.418c.012-.2-.1-.339-.352-.445a4.04,4.04,0,0,0-2.993-.111c-.959.333-1.91.69-2.865,1.037q-3.168,1.149-6.335,2.3a.6.6,0,0,1-.644-.109c-.273-.233-.556-.454-.836-.68-.369-.3-.369-.3-.8-.109C718.172,482.786,718.169,482.791,718.151,482.807Zm4.446-3.361c.737.528,1.444,1.037,2.155,1.539a.229.229,0,0,0,.179.012c.51-.179,1.018-.364,1.525-.548.041-.015.08-.038.14-.067-.921-.455-1.815-.9-2.711-1.336a.2.2,0,0,0-.138-.012C723.373,479.164,723,479.3,722.6,479.446Z" fill="#2f5fb3"/></g></svg>