<svg xmlns="http://www.w3.org/2000/svg" width="119.581" height="93.657" viewBox="0 0 119.581 93.657"><g transform="translate(-234.845 -3238.616)"><path d="M340.834,3306.026c-1.7.007-3.4.021-5.1.021q-32.259,0-64.516-.008c-.263,0-.59.162-.794-.167l.935-.085,7.6.006,6.181,0h5.932l5.705,0,4.035,0q2.967.075,5.935,0l2.614,0,3.206-.007,5.462-.01h6.289l6.3,0,7.243,0,2.977.019Z" fill="#fff"/><path d="M307.379,3266.776c.04.126-.018.187-.138.192-.178.007-.356.008-.534.008q-30.81,0-61.621-.008c-.264,0-.59.16-.795-.167.863-.141,1.732-.022,2.6-.077l5.47-.007,5.933,0,4.629,0,4.394.01,2.968.007,2.376,0h3.8l2.969,0,2.969-.006,4.75-.01H291.3l5.344,0,6.645,0Z" fill="#fff"/><path d="M302.471,3240.6c-1.881-.212-3.757-.5-5.654-.531-1.2-.022-2.411-.022-3.617-.032l0-1.322a31.813,31.813,0,0,1,5.3.038,37.059,37.059,0,0,1,4.076.49C302.4,3239.684,302.649,3240.159,302.471,3240.6Z" fill="#fff"/><path d="M279.542,3242.736c-1.778.746-3.58,1.439-5.281,2.358q-1.339.724-2.674,1.455c-.334-.394-.129-.94-.385-1.356a38.1,38.1,0,0,1,8.225-3.865A4.833,4.833,0,0,0,279.542,3242.736Z" fill="#fff"/><path d="M293.44,3330.871a54.26,54.26,0,0,0,9.146-.587l0,1.38a43.652,43.652,0,0,1-9.017.573Z" fill="#fff"/><path d="M330,3256.369c-.832-.892-1.661-1.789-2.5-2.677-1.287-1.365-2.735-2.554-4.142-3.788a.651.651,0,0,0,.375-.746.886.886,0,0,1,.126-.612,35.668,35.668,0,0,1,4.544,4.032,12.968,12.968,0,0,1,1.63,1.787A5.423,5.423,0,0,1,330,3256.369Z" fill="#fff"/><path d="M268.233,3323.8a30.987,30.987,0,0,1-3.866-2.994,23.009,23.009,0,0,1-2.71-2.624c.379-.123.312-.441.308-.724s-.006-.52.371-.5a63,63,0,0,0,6.064,5.279A3.6,3.6,0,0,0,268.233,3323.8Z" fill="#fff"/><path d="M293.44,3330.871l.127,1.366a41.8,41.8,0,0,1-7.961-.935l.116-1.367A56.148,56.148,0,0,0,293.44,3330.871Z" fill="#fff"/><path d="M260.972,3306.011c-.4-.064-.207-.383-.19-.559.023-.249.286-.134.44-.134q6.2-.009,12.405-.005h80.127c.65,0,.764.113.612.61-.027.088-.107.1-.191.088l.051-.213c.083-.336-.129-.345-.37-.345q-3.961.011-7.922.016H337.86l-7.244,0-6.3,0-6.292,0-5.463,0-3.209,0-2.61,0-5.935,0H285.132l-6.179,0-7.6,0H265.3c-1.354-.006-2.707-.008-4.061-.02-.251,0-.377.072-.311.341Z" fill="#fff"/><path d="M317.669,3326.455a38.682,38.682,0,0,1-6.77,3.076,3.625,3.625,0,0,0,.227-1.564,60.42,60.42,0,0,0,6.665-3.151A11.237,11.237,0,0,1,317.669,3326.455Z" fill="#fff"/><path d="M323.224,3321.113c1.441-1.257,2.914-2.478,4.24-3.861.4-.413.812-.806,1.218-1.208a10.669,10.669,0,0,1,.292,1.671,38.505,38.505,0,0,1-5.606,5.042,1.387,1.387,0,0,0,.1-.507C323.4,3321.869,323.77,3321.386,323.224,3321.113Z" fill="#fff"/><path d="M261.93,3252.425a31.639,31.639,0,0,1,3.821-3.481,4.488,4.488,0,0,1,1.37-.983c.363.025.353.284.275.512a3.058,3.058,0,0,0-.076.992c-1.54,1.326-3.1,2.628-4.558,4.048a7.733,7.733,0,0,1-.894.924A4.385,4.385,0,0,1,261.93,3252.425Z" fill="#fff"/><path d="M272.545,3324.922a57.583,57.583,0,0,0,6.529,3.078,2.608,2.608,0,0,0-.006,1.447,34.632,34.632,0,0,1-6.535-2.967A5.724,5.724,0,0,1,272.545,3324.922Z" fill="#fff"/><path d="M235.128,3266.94c-.43,0-.239-.333-.249-.523-.014-.255.217-.155.354-.173a2.459,2.459,0,0,1,.3,0q42.211,0,84.423.012c.219,0,.645-.255.653.293l-.212-.137-5.576-.014h-5.345l-6.179,0-6.648,0h-9.5l-4.751,0-2.971,0-2.97,0h-3.794l-2.376,0-2.971,0-4.394,0-4.631,0-5.937,0-5.466,0H241.3q-2.95-.006-5.9-.014c-.238,0-.453,0-.371.34Z" fill="#fff"/><path d="M328.974,3317.715a10.669,10.669,0,0,0-.292-1.671q2.176-2.577,4.169-5.3a6.174,6.174,0,0,1,.268,1.961,26.921,26.921,0,0,1-2.294,3.009A16.124,16.124,0,0,1,328.974,3317.715Z" fill="#fff"/><path d="M293.2,3238.715l0,1.322c-2.065.154-4.125.356-6.171.676v-1.383A33.566,33.566,0,0,1,293.2,3238.715Z" fill="#fff"/><path d="M307.694,3240.377a27.194,27.194,0,0,1,4.474,1.486c.446.186.895.367,1.343.551a4.075,4.075,0,0,0-.112,1.442c-1.808-.716-3.62-1.422-5.482-1.991A6.922,6.922,0,0,0,307.694,3240.377Z" fill="#fff"/><path d="M256.293,3309.2l3.058,4.332c-.242.028-.247.208-.234.385a4.532,4.532,0,0,1-.138,1.308,24.679,24.679,0,0,1-3.092-4.179c.218-.16.144-.4.134-.6A2.414,2.414,0,0,1,256.293,3309.2Z" fill="#fff"/><path d="M272.545,3324.922a5.724,5.724,0,0,0-.012,1.558,28.146,28.146,0,0,1-4.3-2.677,3.592,3.592,0,0,1,.167-1.56Z" fill="#fff"/><path d="M267.32,3249.465a3.058,3.058,0,0,1,.076-.992c.078-.228.088-.487-.275-.512a22.764,22.764,0,0,1,4.081-2.768c.256.416.051.962.385,1.356Z" fill="#fff"/><path d="M332.816,3257.807a31.2,31.2,0,0,1,3.068,4.652c-.547,0-.99,0-1.433,0a.407.407,0,0,1-.374-.236c-.515-.837-1.035-1.67-1.553-2.505a.516.516,0,0,0,.167-.543C332.635,3258.725,332.459,3258.231,332.816,3257.807Z" fill="#fff"/><path d="M256.374,3259.124a23.724,23.724,0,0,1,2.725-3.584,7.6,7.6,0,0,0,.146,1.88,5.092,5.092,0,0,1-1.086,1.567c-.536.648-.884,1.414-1.415,2.058a.761.761,0,0,1-.25-.668A2.453,2.453,0,0,0,256.374,3259.124Z" fill="#fff"/><path d="M320.261,3247.633l-3.783-2.27a1.114,1.114,0,0,0,.005-1.539,25.954,25.954,0,0,1,3.917,2.257C320.34,3246.6,320.554,3247.137,320.261,3247.633Z" fill="#fff"/><path d="M258.979,3315.221a4.532,4.532,0,0,0,.138-1.308c-.013-.177-.008-.357.234-.385.914,1.216,2.016,2.268,2.985,3.436-.377-.022-.375.229-.371.5s.071.6-.308.724A18.436,18.436,0,0,1,258.979,3315.221Z" fill="#fff"/><path d="M332.816,3257.807c-.357.424-.181.918-.125,1.369a.516.516,0,0,1-.167.543q-1.261-1.675-2.524-3.35a5.423,5.423,0,0,0,.034-2A20.6,20.6,0,0,1,332.816,3257.807Z" fill="#fff"/><path d="M333.119,3312.708a6.174,6.174,0,0,0-.268-1.961c.368-.814.94-1.505,1.376-2.277a2.312,2.312,0,0,1,1.614-.232c.136.109.039.221-.013.311A29.612,29.612,0,0,1,333.119,3312.708Z" fill="#fff"/><path d="M320.261,3247.633c.293-.5.079-1.036.139-1.552a27.627,27.627,0,0,1,3.46,2.465.886.886,0,0,0-.126.612.651.651,0,0,1-.375.746Z" fill="#fff"/><path d="M259.245,3257.42a7.6,7.6,0,0,1-.146-1.88,20.548,20.548,0,0,1,2.831-3.115,4.385,4.385,0,0,0-.062,2.012Q260.556,3255.928,259.245,3257.42Z" fill="#fff"/><path d="M317.669,3326.455a11.237,11.237,0,0,0,.122-1.639l3.2-2.034a.322.322,0,0,1,.093.42,1.67,1.67,0,0,0,.041,1.141A23.8,23.8,0,0,1,317.669,3326.455Z" fill="#fff"/><path d="M279.542,3242.736a4.833,4.833,0,0,1-.115-1.408,24.52,24.52,0,0,1,3.8-1.172,10.1,10.1,0,0,1,0,1.4Z" fill="#fff"/><path d="M283.226,3241.558a10.1,10.1,0,0,0,0-1.4,29.313,29.313,0,0,1,3.8-.826v1.383Z" fill="#fff"/><path d="M271.225,3280.609a1.7,1.7,0,0,1,1.862,1.428c.016.072.055.2.079.2.719-.036.438.534.45.831a6.782,6.782,0,0,1-.36,2.434c-.357-.142-.363-.5-.464-.789-.067-.19-.088-.373-.326-.408.1-.543-.3-1.032-.164-1.59.046-.192-.162-.281-.356-.289A5.9,5.9,0,0,0,271.225,3280.609Z" fill="#fff"/><path d="M316.483,3243.824a1.114,1.114,0,0,1-.005,1.539l-3.079-1.507a4.075,4.075,0,0,1,.112-1.442A18.7,18.7,0,0,1,316.483,3243.824Z" fill="#fff"/><path d="M298.2,3257.882l4.157.649a2.783,2.783,0,0,0-.248,1.157.6.6,0,0,1-.221-.049c-.678-.473-.77-.443-1.036.367a2.227,2.227,0,0,0-.051.23.508.508,0,0,0-.553-.168c.036-.27.238-.61-.066-.783-.281-.159-.537.1-.753.292-.043.038-.081.081-.122.121l-1.114-.08.027-.018-.013-.031.112-.622,1.168.038a2.286,2.286,0,0,0,1.039-.055l-1.035-.131-1.3-.258Z" fill="#fff"/><path d="M285.722,3329.935l-.116,1.367a24.42,24.42,0,0,1-3.327-.814c.055-.5-.2-.968-.113-1.466Z" fill="#fff"/><path d="M282.166,3329.022c-.087.5.168.97.113,1.466a21.081,21.081,0,0,1-3.211-1.041,2.608,2.608,0,0,1,.006-1.447Z" fill="#fff"/><path d="M302.584,3331.664l0-1.38,3.09-.617a8.081,8.081,0,0,0-.121,1.415A23.428,23.428,0,0,1,302.584,3331.664Z" fill="#fff"/><path d="M321.12,3324.343a1.67,1.67,0,0,1-.041-1.141.322.322,0,0,0-.093-.42l2.238-1.669c.546.273.178.756.249,1.137a1.387,1.387,0,0,1-.1.507A16.794,16.794,0,0,1,321.12,3324.343Z" fill="#fff"/><path d="M264.555,3293.935c-.119.556-.046,1.142-.488,1.639a1.338,1.338,0,0,0-.181,1.123c.164.761-.32,1.418-.318,2.152,0,.186-.257.16-.33.3-.376.043-.444-.268-.578-.5a3.7,3.7,0,0,1,.78-1.989.338.338,0,0,0,.083-.2c0-.167.226-2.65.275-2.782.027-.073.062-.143.094-.215C264.235,3293.449,264.253,3293.891,264.555,3293.935Z" fill="#fff"/><path d="M302.471,3240.6c.178-.441-.07-.916.111-1.357a22.08,22.08,0,0,1,2.855.553c.037.466-.171.932,0,1.4Z" fill="#fff"/><path d="M311.126,3327.967a3.625,3.625,0,0,1-.227,1.564,20.69,20.69,0,0,1-2.612.84,2.076,2.076,0,0,0,0-1.418Z" fill="#fff"/><path d="M308.284,3328.953a2.076,2.076,0,0,1,0,1.418,20.76,20.76,0,0,1-2.732.711,8.081,8.081,0,0,1,.121-1.415Z" fill="#fff"/><path d="M256.374,3259.124a2.453,2.453,0,0,1,.12,1.253.761.761,0,0,0,.25.668c-.224.39-.439.786-.677,1.167a2.389,2.389,0,0,1-1.61.208c-.119-.112-.026-.222.027-.316A20.065,20.065,0,0,1,256.374,3259.124Z" fill="#fff"/><path d="M298.876,3250.9a1.068,1.068,0,0,1,.079,1.01q-.253,1.089-.532,2.174a3.448,3.448,0,0,0-.106,2.427l-.245.949c-.245.066-.58-.124-.716.252a.207.207,0,0,1-.1.027l-.259-.15c.253-.254.066-.584.148-.867.2-.161.543-.278.135-.588-.1-.079-.049-.217-.008-.328.654.069.364-.5.439-.741.295-.972.43-2,.78-2.946C298.637,3251.718,298.482,3251.215,298.876,3250.9Z" fill="#fff"/><path d="M276.636,3285.272c-.671,1.386-.369,2.994-1,4.39-.521-.15-.316-.669-.5-.989a18.262,18.262,0,0,1,.947-4.134C276.508,3284.6,276.294,3285.146,276.636,3285.272Z" fill="#fff"/><path d="M252.524,3279c.543.336,1.211.5,1.542,1.126.072.138.222.279.212.41-.065.907.25,1.831-.118,2.722-.494-.2-.468-.646-.5-1.063.352-.371.047-.448-.239-.533.03-.219-.145-.353-.218-.528C252.916,3280.445,252.347,3279.841,252.524,3279Z" fill="#fff"/><path d="M300.613,3298.426c.2-.449.4-.894.588-1.348a.587.587,0,0,1,.527-.4c.233,0,.144.284.2.436a42.8,42.8,0,0,0,1.742,3.953c.08.175.373.418-.028.565-.367.135-.365-.217-.433-.407-.431-1.22-.425-1.218-1.7-1.21-.432,0-.864-.021-1.3-.033l.013-.271a8.45,8.45,0,0,0,2.384.017l-1.134-2.313c-.282.35-.382.753-.68,1.026Z" fill="#fff"/><path d="M286.437,3297.72l2.3,2.9c.237-.136.194-.312.178-.457-.105-.981.07-1.97-.093-2.949-.024-.143-.1-.313.047-.444.071-.065.155-.153.255-.1a.236.236,0,0,1,.086.193c-.137,1.286.01,2.576-.061,3.863-.006.11-.085.208.016.331a.292.292,0,0,1-.067.457.329.329,0,0,1-.45-.156c-.7-1.184-1.609-2.215-2.358-3.36Z" fill="#fff"/><path d="M268.722,3298.306c.169-.417.347-.831.506-1.252a.6.6,0,0,1,.489-.377c.258-.034.173.252.223.4a33.647,33.647,0,0,0,1.73,3.9,3.616,3.616,0,0,1,.165.378.188.188,0,0,1-.14.272c-.111.029-.238.07-.326-.048a.338.338,0,0,1-.055-.167c-.122-1.5-1.187-1.49-2.286-1.424-.177.01-.355,0-.533.005-.026-.157,0-.311.2-.254a8.869,8.869,0,0,0,1.961.027l-1.142-2.337-.75,1.1Z" fill="#fff"/><path d="M329.514,3297.917c.207-.382.154-.891.6-1.162.195-.12.312-.151.38.112a26.921,26.921,0,0,0,1.78,4.187c.076.17.372.419-.014.576-.361.147-.371-.2-.436-.391-.408-1.234-.4-1.232-1.689-1.225-.471,0-.942-.02-1.413-.032a.282.282,0,0,1,.149-.25,9.1,9.1,0,0,0,2.353-.007l-1.147-2.314-.417.675Z" fill="#fff"/><path d="M292.976,3260.465a9.567,9.567,0,0,1-3.331,1.133c-.072-.337.171-.649.079-.988a9.307,9.307,0,0,0,3.178-1.225l.034.026.032-.027.228.019Z" fill="#fff"/><path d="M298.876,3250.9c-.394.313-.239.816-.388,1.219-.35.949-.485,1.974-.78,2.946-.075.246.215.81-.439.741.043-.264.087-.528.129-.793.1-.071.083-.172.076-.271.18-.119.111-.308.132-.472.028-.043.057-.086.082-.131l-.041-.032-.056.151a.657.657,0,0,0-.221.5l-.018.211a.273.273,0,0,0-.106.009c-.259-.381-.026-.747.1-1.071a.449.449,0,0,0-.112-.6c.321-1.031.792-2,1.2-3.021A1.325,1.325,0,0,1,298.876,3250.9Z" fill="#fff"/><path d="M305.44,3241.193c-.174-.465.034-.931,0-1.4a13.879,13.879,0,0,1,2.257.581,6.922,6.922,0,0,1,.223,1.488Z" fill="#fff"/><path d="M344.991,3298.2a8.646,8.646,0,0,0,2.075.229c1.41.2,1.828,1.057,1,2.237a2.64,2.64,0,0,1-2.948.966l-.019-.18a3.016,3.016,0,0,0,1.843-.152,1.765,1.765,0,0,0,.995-1.764c-.043-.2-.085-.425-.342-.508a5.267,5.267,0,0,0-2.164-.246c-.181.018-.284-.116-.438-.123Z" fill="#fff"/><path d="M292.776,3255.1c-.316-.163-.316-.353-.137-.654.21-.352.407-.126.579-.031.566.315,1.116.657,1.673.988l-.031.68-3.081-.277c.015-.224.168-.43.083-.666l.848.068C292.8,3255.212,292.877,3255.211,292.776,3255.1Z" fill="#fff"/><path d="M295.552,3261.3a.937.937,0,0,1-.349-1.035c.186-.8.187-.8-.649-.772-.213-.038-.446.039-.639-.113a1.074,1.074,0,0,1,.262-.618,12.016,12.016,0,0,0,2.009-.368l-.286.349c.186.084.376,0,.513.137a1.8,1.8,0,0,0-.245,1.036.745.745,0,0,0-.2.611C295.734,3260.736,295.749,3261.077,295.552,3261.3Z" fill="#fff"/><path d="M340.248,3297c-.355.007-.709.022-1.064.021-.647,0-.69.059-.492.735v.24q.024,1.62.05,3.242c-.01.046-.02.091-.031.137l.154-.025.185.078c0,.03,0,.061,0,.092a2.6,2.6,0,0,1-.987.126,8.552,8.552,0,0,0,.2-2.81,5.165,5.165,0,0,0-.282-1.885c-.118-.268.209-.275.387-.267.626.025,1.251.074,1.877.113Z" fill="#fff"/><path d="M287.378,3317.315c-.2.074-.4.119-.331.431.084.392.246.666.685.686l.006.668a1.519,1.519,0,0,1-1.424-1.824c.028-.16.085-.368.218-.391.6-.107.615-.632.8-1.042a2.273,2.273,0,0,1,.532-.884,2.863,2.863,0,0,1,0,1.658h0C287.487,3316.7,287.179,3316.833,287.378,3317.315Z" fill="#fff"/><path d="M256.293,3309.2a2.414,2.414,0,0,0-.272,1.247c.01.2.084.439-.134.6a19.9,19.9,0,0,1-1.534-2.429c-.109-.187-.173-.354.155-.414C255.531,3308.01,255.925,3308.222,256.293,3309.2Z" fill="#fff"/><path d="M281.454,3297c-.352.008-.7.023-1.056.023-.635,0-.684.067-.5.736v.25a27.139,27.139,0,0,0,.115,3.61h-.738a8.408,8.408,0,0,0,.188-2.923,5.468,5.468,0,0,0-.253-1.731c-.12-.29.177-.288.354-.281.63.027,1.258.075,1.887.114Z" fill="#fff"/><path d="M354.226,3305.8l-.051.213c-.987.011-1.974.031-2.961.031q-5.19,0-10.38-.016v-.216l5.094-.015Z" fill="#fff"/><path d="M289.756,3290.36a1.044,1.044,0,0,1-.72-.085,13.242,13.242,0,0,0-.863-1.985c-.186-.295-.124-.811-.62-.9a2.285,2.285,0,0,1,.092-1.3c.172.015.233.151.338.262.259.272.234.707.565.925a9.577,9.577,0,0,0,.969,2.162A2.081,2.081,0,0,0,289.756,3290.36Z" fill="#fff"/><path d="M308.59,3301.231c.495-.282,1.1-.375,1.486-.842a.406.406,0,0,0,.274-.272,1.91,1.91,0,0,0,.355-2.242c-.51-.72-1.348-.8-2.283-1.025a3.1,3.1,0,0,1,2.058.23,1.682,1.682,0,0,1,.859,2.043,2.757,2.757,0,0,1-1.5,1.784,3.317,3.317,0,0,1-1.137.47Z" fill="#fff"/><path d="M291.419,3283.7a8.574,8.574,0,0,0-2.073.357.778.778,0,0,0-.4.31.788.788,0,0,0-.473-.319,6.631,6.631,0,0,1,2.22-2.474c.133.013.237.059.241.216a1.646,1.646,0,0,0-.852.907c-.1.236.45.31.545.61a.244.244,0,0,0,.029.05c.159.242.2-.051.3-.065C291.172,3283.362,291.4,3283.416,291.419,3283.7Z" fill="#fff"/><path d="M313.633,3297.98a13.642,13.642,0,0,0-.008,2.619,1.3,1.3,0,0,1-.112.8l-.005.146a.768.768,0,0,1-.539.076,12.17,12.17,0,0,0,.058-4.331c-.067-.643-.094-.658.566-.609.529.039,1.059.074,1.589.11l.005.2c-.329.01-.658.03-.986.027-.788-.009-.809.014-.63.818Z" fill="#fff"/><path d="M339.685,3286.813a5.161,5.161,0,0,0,1.012,2.684c.076.3.412.5.371.853a1.214,1.214,0,0,1-.867-.067c.255-.2.051-.406-.014-.579-.21-.564-.5-1.1-.757-1.638-.189-.385-.229-.982-.78-1.16a2.242,2.242,0,0,1,.187-1.165.5.5,0,0,1,.453.466C339.334,3286.463,339.4,3286.712,339.685,3286.813Z" fill="#fff"/><path d="M321.825,3281.483c-.333-.252-.585.026-.885.1a3.339,3.339,0,0,0-1.59.838c-.519-.284-.437-.946-.828-1.311a5.7,5.7,0,0,1,.989-.776,1.166,1.166,0,0,1,.038.766c-.017.164-.182.36,0,.475s.319-.1.464-.182c.42-.249.832-.512,1.246-.773.1-.064.2-.138.324-.085C321.647,3280.856,321.9,3281.129,321.825,3281.483Z" fill="#fff"/><path d="M308.177,3301.516a4.383,4.383,0,0,1-1.486.1,1.07,1.07,0,0,0,.476-1.213c-.094-1.016-.029-2.042-.19-3.051-.116-.725-.123-.724.683-.7.259.008.259.008.694.307-.822-.234-1.006.06-.885.716a4.767,4.767,0,0,1-.022,1c-.229.168.028.258.062.385l.073,2.112c-.017.093,0,.159.115.143l.48-.008Z" fill="#fff"/><path d="M292.839,3280.421c.106-.051.213-.1.32-.154.579-.268.691-.2.763.47.014.358.423.54.427.879.006.609.448.957.75,1.391.036.723-.092.833-.827.716.046-.358-.22-.586-.363-.866a1.431,1.431,0,0,0-.9-1.8Z" fill="#fff"/><path d="M306.982,3284.55a7.8,7.8,0,0,1,.571-2.39c.057-.108.089-.217.224-.244l.17.166a1.04,1.04,0,0,0,.238,1.143.209.209,0,0,1,.057.259c-.236.665-.212,1.392-.481,2.051a.43.43,0,0,1-.428-.5C307.347,3284.784,307.285,3284.578,306.982,3284.55Z" fill="#fff"/><path d="M320.4,3266.955H308.29v-.216l1.183-.011,5.344,0,5.568-.009.036.036Z" fill="#fff"/><path d="M261.488,3280.4c.266-.069.322.1.382.306.036.126.1.322.312.145.192.117.483.157.483.448a4.143,4.143,0,0,0,.557,1.5c.1.26.114.592.467.686-.107.49.032,1.048-.4,1.447.074-.392-.194-.733-.18-1.1s-.171-.473-.48-.491a8.174,8.174,0,0,0-1.141-2.384Z" fill="#fff"/><path d="M245.468,3279.942c-.2.479-.481.082-.727.062.033-.2.169-.384.037-.618-.566-1-.9-2.1-1.389-3.141-.1-.2-.149-.412-.437-.368l.265-.706c.355-.027.326.5.686.471a1.85,1.85,0,0,0,.717,1.811,1.39,1.39,0,0,0,.1.518C244.978,3278.624,245.219,3279.284,245.468,3279.942Z" fill="#fff"/><path d="M321.826,3299.277a4.6,4.6,0,0,0,.751,1.431c.641-1.3.832-2.729,1.431-4.015.02-.042.138-.037.271-.068-.419,1.256-.827,2.457-1.218,3.663-.115.354-.186.722-.272,1.085a.322.322,0,0,1-.284.263c-.117.014-.148-.1-.186-.194q-.429-1.021-.861-2.043Z" fill="#fff"/><path d="M329.172,3283.23c.332-.407.458-.764-.214-.948-.157-.043-.19-.207-.21-.334a.706.706,0,0,0-.611-.627c0-.265,0-.53-.006-.8a2.546,2.546,0,0,0,.718.232c.338.042.668.036.5.636-.161.584.333,0,.523.219.226.775-.216,1.606-.109,2.45C329.272,3284,329.4,3283.488,329.172,3283.23Z" fill="#fff"/><path d="M244.268,3279.682a1.389,1.389,0,0,1-1.348-1.021,2.907,2.907,0,0,1-.1-2.177c.479.071.394.536.535.819A7.825,7.825,0,0,1,244.268,3279.682Z" fill="#fff"/><path d="M332.666,3284.07a6.777,6.777,0,0,1-.455-2.076c-.011-.219-.061-.426.17-.562.258.486.7.878.771,1.465.005.043.122.072.187.107.376.4.174.888.162,1.333a3.083,3.083,0,0,0,.043.8c-.225.016-.382,0-.456-.3C333.02,3284.566,332.992,3284.222,332.666,3284.07Z" fill="#fff"/><path d="M254.85,3287.76a.537.537,0,0,1,.252-.47,1.127,1.127,0,0,1,.485.682c.072.265.076.636.453.739-.024.242-.154.518.317.473.23-.022.4.215.515.424a1.783,1.783,0,0,0,.232,1.074,1.425,1.425,0,0,1-1.191-.474Z" fill="#fff"/><path d="M334.661,3301.424a2.2,2.2,0,0,0,1.286-1.365,1.835,1.835,0,0,0-.074-.871,10.842,10.842,0,0,0-.175-2.362c-.081-.24.249-.3.429-.373.164-.062.195.1.168.218a10.546,10.546,0,0,0,.053,2.772,1.942,1.942,0,0,1-1.312,2.014c-.128.054-.254.11-.381.165Z" fill="#fff"/><path d="M326.091,3296.411a43.99,43.99,0,0,0-.022,4.6c.009.349-.066.581-.526.572a30.556,30.556,0,0,0,.1-3.851,3.038,3.038,0,0,0-.028-.76C325.492,3296.569,325.735,3296.518,326.091,3296.411Z" fill="#fff"/><path d="M301.984,3316.479a4.713,4.713,0,0,0-.911,2.2c-.038.446-.254.525-.626.422a1.045,1.045,0,0,0-.113-.689,5.237,5.237,0,0,1,1.44-2.742C302.2,3315.848,301.9,3316.214,301.984,3316.479Z" fill="#fff"/><path d="M338.65,3286.906c.551.178.591.775.78,1.16.261.533.547,1.074.757,1.638.065.173.269.383.014.579a2.428,2.428,0,0,1-1.54-2.789A2.279,2.279,0,0,0,338.65,3286.906Z" fill="#fff"/><path d="M296.932,3301.594a26.1,26.1,0,0,0,.049-4.743c-.031-.364.246-.31.463-.457,0,1.2,0,2.323,0,3.447,0,.406,0,.813.03,1.218C297.505,3301.449,297.322,3301.591,296.932,3301.594Z" fill="#fff"/><path d="M279.13,3271.36c.051-.486.089-.974.157-1.457a1.743,1.743,0,0,1,1.507-1.468c-.041.178-.22.2-.33.29-.411.345-.655.72-.286,1.243.334.473.043.854-.2,1.232a3.663,3.663,0,0,1-.344.4C279.422,3271.614,279.324,3271.383,279.13,3271.36Z" fill="#fff"/><path d="M295.342,3319.108a12.761,12.761,0,0,1-2.644-.033c-.171-.014-.367,0-.366-.271s.147-.348.372-.353c.924-.017,1.847-.09,2.771-.016A1.11,1.11,0,0,0,295.342,3319.108Z" fill="#fff"/><path d="M333.526,3287.04c.308.287.26.683.317,1.045.033.2-.032.466.308.463l.164.352c-.309.214-.124.7-.479.884-.172-.157-.151-.4-.264-.581-.319-.5-.3-1.178-.827-1.562.1-.471-.171-.969.1-1.428C333.23,3286.362,333.019,3287,333.526,3287.04Z" fill="#fff"/><path d="M345.941,3283.59c-.178.122-.34.314-.585.128a1.747,1.747,0,0,1-.255-.966c.047-1.094-.4-1.627-1.4-1.691-.048-.183-.17-.348-.134-.552l.875-.253c.068.037.17.057.2.114A22.174,22.174,0,0,1,345.941,3283.59Z" fill="#fff"/><path d="M299.142,3309.023l.472,0,.108.672c-.1.057-.1.114,0,.17l.012,1.137c-.128.042-.291-.056-.392.1l.261.073c.073.2.158.4,0,.593l-1.271.025.089-.627c.054-.094.321.129.243-.162.232-.366.084-.771.122-1.157.136,0,.273.005.409,0,.108-.006.279.018.248-.148-.023-.125-.2-.083-.307-.109Z" fill="#fff"/><path d="M250.8,3279.1a1.116,1.116,0,0,1,.712-.366,10.72,10.72,0,0,0,1.3,2.935c-.119.246-.241.154-.4.022a5.388,5.388,0,0,0-1.017-.831,1.015,1.015,0,0,0-.131-.432C251.08,3280,250.7,3279.631,250.8,3279.1Z" fill="#fff"/><path d="M275.742,3301.482a1.989,1.989,0,0,1-2.826-1.354,2.449,2.449,0,0,1,.321-1.97c.014.152.059.278.243.286a3.784,3.784,0,0,0-.1,1.517,1.6,1.6,0,0,0,1.854,1.354c.167-.014.356-.069.5.086A.053.053,0,0,1,275.742,3301.482Z" fill="#fff"/><path d="M285.666,3297.472q.032,1.782.065,3.563c0,.176.036.366-.184.444-.067.024-.188.05-.211.019-.118-.157-.023-.334-.02-.505.011-.608.012-1.216,0-1.824a16.581,16.581,0,0,0-.1-1.92c-.046-.329.062-.54.3-.6.346-.081.307.249.341.468C285.665,3297.165,285.778,3297.381,285.666,3297.472Z" fill="#fff"/><path d="M250.334,3269.618a11.2,11.2,0,0,1,3.073-.578,1.96,1.96,0,0,0,.234.716c.086.17.351.31.118.55-.309-.07-.585-.13-.693-.524a.514.514,0,0,0-.888-.206c-.495.531-1.175.37-1.728.628A.966.966,0,0,1,250.334,3269.618Z" fill="#fff"/><path d="M300.671,3309.185a1.275,1.275,0,0,1,.969.537c.03.852-.374,1.7-.009,2.556a.51.51,0,0,1,.01.176,1.2,1.2,0,0,1-.711-.217l-.145-.3a2.981,2.981,0,0,0,.139-1.341c.019-.409-.167-.636-.593-.632A.791.791,0,0,0,300.671,3309.185Zm.727,1.551-.056-.1c-.018.032-.05.064-.05.1s.032.063.049.095Z" fill="#fff"/><path d="M303.89,3258.675a14.246,14.246,0,0,1,1.892.158l-.11,1-2.022-.014Z" fill="#fff"/><path d="M322.194,3288.233a4.144,4.144,0,0,1,1.77-2.032l.116.353a2.249,2.249,0,0,0-.827,1.678,1.232,1.232,0,0,1-.346.953C322.365,3289.1,322.548,3288.464,322.194,3288.233Z" fill="#fff"/><path d="M252.811,3281.668a10.72,10.72,0,0,1-1.3-2.935c.322-.266.592-.03.875.089-.055.045-.144.083-.1.169.059.112.149.063.229.014l.005,0c-.177.838.392,1.442.676,2.134.073.175.248.309.218.528Z" fill="#fff"/><path d="M298.192,3259.618c-.062.264-.115.531-.189.792a1.564,1.564,0,0,1-1.6,1.241l.031-.767c.2-.234.571-.372.422-.789l.146-.837c.113.038.308-.415.35.063a4.98,4.98,0,0,0,.108.549,2.551,2.551,0,0,0-.271,1.191.864.864,0,0,0,.393-.966c.225-.153.069-.755.619-.526l.013.031Z" fill="#fff"/><path d="M309.472,3266.727l-1.183.012-.921.025.011.012-4.091-.057.006-.32,6.179,0Z" fill="#fff"/><path d="M256.363,3283.685a6.632,6.632,0,0,1,1.672-1.831,5.47,5.47,0,0,0,.689-.536c.16.087.154.241.158.391a9.376,9.376,0,0,0-2.094,2.633C256.374,3284.3,256.382,3283.983,256.363,3283.685Z" fill="#fff"/><path d="M241.3,3266.4h5.582l0,.328c-.863.055-1.732-.064-2.6.077a.062.062,0,0,1-.068-.053.371.371,0,0,0-.368.129c-.239.215-.517.079-.778.085-.023-.314-.267-.218-.439-.224-.444-.014-.889-.01-1.334-.013Z" fill="#fff"/><path d="M265.3,3305.474h6.056l.005.314-.935.085a.062.062,0,0,1-.068-.052l-5.054-.031Z" fill="#fff"/><path d="M309.336,3276.81c0-.059.03-.135,0-.175-.638-.931.039-1.852.016-2.777.308.316.179.9.676,1.1a2.9,2.9,0,0,1-.249,2Z" fill="#fff"/><path d="M333.526,3287.04c-.507-.045-.3-.678-.678-.827.02-.454-.437-.747-.379-1.242a2.168,2.168,0,0,1,.2-.9c.326.152.354.5.422.769.074.3.231.312.456.3A3.653,3.653,0,0,1,333.526,3287.04Z" fill="#fff"/><path d="M300.8,3260.236a2.227,2.227,0,0,1,.051-.23c.266-.81.358-.84,1.036-.367a.6.6,0,0,0,.221.049.132.132,0,0,1,.017.087c-.267.1-.2.353-.249.549-.147.559-.3,1.106-.961,1.284-.089-.108-.256-.17-.158-.374a.316.316,0,0,0-.1-.452A.619.619,0,0,0,300.8,3260.236Z" fill="#fff"/><path d="M288.326,3314.453a2.077,2.077,0,0,1,.718-.35l.165,1.512c-.049.137-.3.186-.176.4l.012,0c-.054-.066-.107-.066-.161,0-.165.292-.033.61-.085.912l-.942.269,0-.574h0c.486-.061.573-.367.412-.755-.057-.139-.128-.256-.026-.365C288.564,3315.164,288.428,3314.81,288.326,3314.453Zm.343.594c-.02.025-.062.065-.056.073.046.068.077.019.107-.022.02-.024.061-.064.056-.072C288.729,3314.954,288.7,3315.016,288.669,3315.047Z" fill="#fff"/><path d="M345.941,3283.59a22.174,22.174,0,0,0-1.305-3.22c-.028-.057-.13-.077-.2-.114.1-.132.342-.141.353-.085.089.474.6.451.828.744a4.148,4.148,0,0,1,.537,1.227,3.57,3.57,0,0,1,.074,1.4C346.217,3283.794,346.053,3283.646,345.941,3283.59Z" fill="#fff"/><path d="M348.219,3285.378a1.318,1.318,0,0,1,.057-.22,2.447,2.447,0,0,0,.395-1.575,1.224,1.224,0,0,1,.242-.814c.433.11.294.691.687.834l-.7,2.133C348.55,3285.849,348.479,3285.435,348.219,3285.378Z" fill="#fff"/><path d="M294.783,3308.742c.592.078.629.733,1.039,1a.419.419,0,0,0,.02.116l.08.461c-.076-.018-.153-.034-.228-.056-.171-.052-.4-.135-.5.008-.135.2.114.278.235.392.083.078.071.091-.187.248a3.87,3.87,0,0,0-1.214.071c-.066-.536.137-.792.711-.788.29,0,.063-.09-.014-.132Z" fill="#fff"/><path d="M253.657,3282.2c.035.417.009.863.5,1.063a5.117,5.117,0,0,1-.3,1.4c-.248.039-.326-.14-.432-.311a3.829,3.829,0,0,1-.606-1.935C253.053,3282.166,253.376,3282.259,253.657,3282.2Z" fill="#fff"/><path d="M239.516,3294.29a.536.536,0,0,1-.452-.336c-.625-1.227-1.269-2.445-1.78-3.725-.1-.25-.309-.544,0-.811.311.132.351.481.557.7.4.983.261,2.214,1.333,2.885C239.129,3293.473,239.534,3293.826,239.516,3294.29Z" fill="#fff"/><path d="M316.6,3270.993a6.312,6.312,0,0,1-2.079.123c-.313.007-.369-.376-.635-.451-.227-.011-.267-.156-.246-.345.873.093,1.756-.056,2.627.1C316.636,3270.461,316.6,3270.736,316.6,3270.993Z" fill="#fff"/><path d="M326.231,3290.026a20.33,20.33,0,0,1-2.187.563,2.012,2.012,0,0,1-.906-.117l-.229-.851c.23-.165.441-.3.684.01.413.527.929.475,1.535.343.349-.076.619-.325.976-.325Z" fill="#fff"/><path d="M250.8,3279.1c-.1.532.277.9.465,1.328a1.015,1.015,0,0,1,.131.432c-.442.024-.707-.342-1.073-.485a1.125,1.125,0,0,0-.243-.767,2.3,2.3,0,0,1-.456-1.193c.116-.008.232-.023.347-.022.344,0,.828-.164.638.516C250.6,3278.95,250.736,3279.034,250.8,3279.1Z" fill="#fff"/><path d="M305.655,3289.532a3.373,3.373,0,0,1,.449-1.314c.265.135.146.611.552.621.222.11.364.256.284.534-.153.527-.3,1.057-.442,1.585C306.076,3290.566,306.018,3289.959,305.655,3289.532Z" fill="#fff"/><path d="M351.971,3269.671c.009-.418.34-.586.616-.8.23-.179.454-.367.742-.6a7.693,7.693,0,0,1-.518,2.5C352.149,3270.7,352.281,3270.014,351.971,3269.671Z" fill="#fff"/><path d="M252.823,3282.419a3.829,3.829,0,0,0,.606,1.935c.106.171.184.35.432.311l-.471,1.3c-.432-.278-.4-.871-.793-1.174.334-.553-.135-1.114.018-1.676C252.679,3282.881,252.548,3282.592,252.823,3282.419Z" fill="#fff"/><path d="M300.671,3309.185a.791.791,0,0,1-.34.779c-.013.324.094.73-.062.954-.326.47.472.379.287.721-.032.058.007.153.014.231a2.551,2.551,0,0,1-.967-.1c.159-.2.074-.4,0-.593l.131-.169-.012-1.137c.121-.055.283.041.406-.113l-.407-.057-.108-.672A2.623,2.623,0,0,1,300.671,3309.185Z" fill="#fff"/><path d="M278.113,3282.282c-.668.255-1.019.877-1.525,1.321h-.126a1.327,1.327,0,0,0,.1-1,3.235,3.235,0,0,1,.357-1.622c.3.048.361.332.515.525v.6c.205.1.282-.145.439-.179C278.1,3281.945,278.13,3282.1,278.113,3282.282Z" fill="#fff"/><path d="M244.268,3279.682a7.825,7.825,0,0,0-.911-2.379c-.141-.283-.056-.748-.535-.819a.421.421,0,0,1,.13-.607c.288-.044.342.166.437.368.487,1.037.823,2.141,1.389,3.141.132.234,0,.414-.037.618A.74.74,0,0,1,244.268,3279.682Z" fill="#fff"/><path d="M306.294,3291.585l-.426,2.008c-.454-.993-1.079-1.817-.535-2.867.279,0,.324.253.454.413C305.931,3291.317,306,3291.574,306.294,3291.585Z" fill="#fff"/><path d="M284.312,3253.488l1.293.773c0,.236.032.485-.25.6-.269.018-.422-.248-.672-.275a.157.157,0,0,0-.234-.051l.131.152.468.64c-.339.027-.756-.12-.828.446-.022.168-.239.165-.4.144l.113-.832a2.779,2.779,0,0,0,.35-.81Q284.3,3253.884,284.312,3253.488Z" fill="#fff"/><path d="M265.3,3305.789l5.054.031c.034.267-.17.218-.31.218q-4.536-.009-9.072-.027l-.048-.216Z" fill="#fff"/><path d="M286.786,3254.772l.476.211c.053.346-.089.716.131,1.042a1.718,1.718,0,0,0-.246.742c.035.182-.385.272-.1.5l-.126.659a.985.985,0,0,1-.606-.217c-.034-.367.191-.7.121-1.074l-.006.007c.016-.01.048-.024.047-.029a.7.7,0,0,0-.038-.084l.108-.506c.059-.188.671-.254.125-.573A1.838,1.838,0,0,1,286.786,3254.772Z" fill="#fff"/><path d="M241.3,3266.725c.445,0,.89,0,1.334.013.172.006.416-.09.439.224l-7.949-.022-.1-.217Z" fill="#fff"/><path d="M287.553,3287.4c.5.084.434.6.62.9a13.242,13.242,0,0,1,.863,1.985A2.466,2.466,0,0,1,287.553,3287.4Z" fill="#fff"/><path d="M290.464,3313.341a6.237,6.237,0,0,1,.355-1.462l.364-.255c.062.355-.119.74.128,1.074l-.3,1.082c-.083.057-.182.15-.057.217.27.145.221.385.236.613a1.3,1.3,0,0,1-.609.327c.165-.316-.338-.555-.125-.842S290.556,3313.592,290.464,3313.341Z" fill="#fff"/><path d="M297.235,3253.313a.449.449,0,0,1,.112.6c-.127.324-.36.69-.1,1.071-.3.762-1.061.791-1.666,1.07l0-.7C296.735,3255.162,296.793,3254.081,297.235,3253.313Z" fill="#fff"/><path d="M297.834,3311.852l-.588.145c-.036-.11-.132-.246-.1-.328.331-.812-.135-1.645.077-2.455a2.336,2.336,0,0,1,.913-.161l-.074.662c-.117.044-.265-.059-.364.074l.131.072a3.331,3.331,0,0,0,.118,1.15c-.1.029-.216.024-.24.161A1.559,1.559,0,0,1,297.834,3311.852Z" fill="#fff"/><path d="M280.946,3289.065a1.353,1.353,0,0,1-.977,1.356c-.147.056-.27.288-.456.119s-.063-.368.029-.535a5.646,5.646,0,0,0,.641-1.569C280.633,3288.408,280.588,3288.981,280.946,3289.065Z" fill="#fff"/><path d="M292.027,3309.261c.108-.14.229-.355.326,0a2.413,2.413,0,0,1,.032.52l-.012.005a1.917,1.917,0,0,0,.124,1.047l.053-.989.425-.151c.058.271-.229.7.336.741l.018.762c-.842.5-.842.5-1.215-.253A4.827,4.827,0,0,0,292.027,3309.261Z" fill="#fff"/><path d="M266.542,3289.668c-.167.4-.274.9-.9.539a2.159,2.159,0,0,0-.7-1.142,4.322,4.322,0,0,1,.324-1.228,3.824,3.824,0,0,1,.6,1.111C266.021,3289.261,266.158,3289.577,266.542,3289.668Z" fill="#fff"/><path d="M282.5,3283.351l-.188.678a14.421,14.421,0,0,1-.977-2.023,8.378,8.378,0,0,1-.351-.873c-.053-.139-.208-.289-.06-.43s.33-.066.488.032a15.539,15.539,0,0,0,.876,2.145c.024.067.155.1.236.143l-.02.228-.042.025A.6.6,0,0,0,282.5,3283.351Z" fill="#fff"/><path d="M299.377,3313.04l-2.245.559-.024-.7a8.153,8.153,0,0,1,2.267-.54Z" fill="#fff"/><path d="M261.84,3288.451a3.139,3.139,0,0,1-1.488,1.271c-.4.178-.668.567-1.116.639v-.458a4.746,4.746,0,0,0,2.207-2.051C261.793,3287.908,261.757,3288.219,261.84,3288.451Z" fill="#fff"/><path d="M253.058,3286.688a5.632,5.632,0,0,1-.66,1.233,1.657,1.657,0,0,1-.081-2.311Z" fill="#fff"/><path d="M291.4,3300.971a1.573,1.573,0,0,1-.652-1.419,2.528,2.528,0,0,1,.89-2.157l.28-.005c-.145.449-.467.8-.633,1.253a2.515,2.515,0,0,0,.282,2.034A.414.414,0,0,0,291.4,3300.971Z" fill="#fff"/><path d="M290.83,3289.779a5.736,5.736,0,0,0,2.483-1.1,1.107,1.107,0,0,1,.133.635,4.37,4.37,0,0,1-2.265.922C291.114,3290.043,290.813,3290.034,290.83,3289.779Z" fill="#fff"/><path d="M297.224,3309.214c-.212.81.254,1.643-.077,2.455-.033.082.063.218.1.328a2.321,2.321,0,0,1-.705.3,4.2,4.2,0,0,0,0-1.969l.012-.124c.182-.255.055-.548.1-.82A1.069,1.069,0,0,1,297.224,3309.214Z" fill="#fff"/><path d="M299.306,3259.7c.041-.04.079-.083.122-.121.216-.195.472-.451.753-.292.3.173.1.513.066.783a.606.606,0,0,0-.155.618.08.08,0,0,1,0,.11c-.361.112-.3.432-.35.7a.9.9,0,0,1-.421-1.187A.617.617,0,0,0,299.306,3259.7Z" fill="#fff"/><path d="M283.83,3260.086c-.548-.659-.04-1.274.129-1.873a1.628,1.628,0,0,1,.819-.97c.035.276-.126.58.114.828-.158.234-.318.466-.473.7-.105.161-.031.24.136.269-.005.033-.011.065-.019.1-.308.017-.257.3-.341.476S284.109,3260.049,283.83,3260.086Z" fill="#fff"/><path d="M328.642,3289.548c-.257.641-.87.754-1.4,1.023-.125-.291.087-.46.094-.667a.375.375,0,0,0,.08-.373.414.414,0,0,0-.233-.466c.081-.3.377-.4.568-.6C328.172,3288.718,328.208,3289.3,328.642,3289.548Z" fill="#fff"/><path d="M249.627,3278.414a2.3,2.3,0,0,0,.456,1.193,1.125,1.125,0,0,1,.243.767c-.305.245-.54-.209-.833-.085a10.4,10.4,0,0,1-.694-1.9Z" fill="#fff"/><path d="M301.641,3312.454a.51.51,0,0,0-.01-.176c-.365-.854.039-1.7.009-2.556.609.659.467,1.54.679,2.315a2.867,2.867,0,0,1,.048.526l-.371.011C301.9,3312.455,301.769,3312.467,301.641,3312.454Z" fill="#fff"/><path d="M295.244,3310.911c.258-.157.27-.17.187-.248-.121-.114-.37-.2-.235-.392.1-.143.327-.06.5-.008.075.022.152.038.228.056l.369,0c-.136.174-.382.256-.363.554a5.477,5.477,0,0,0,.136,1.614l-.653.357c.055-.376.1-.655.137-.934.02-.15.083-.336-.2-.28-.383-.078-.2-.39-.25-.6Z" fill="#fff"/><path d="M279.13,3271.36c.194.023.292.254.505.237.048.171-.289.466.182.513.124.012.052.194.018.3l-.417,1.328c-.211-.011-.226-.16-.233-.322a.512.512,0,0,0-.445-.513A7.342,7.342,0,0,1,279.13,3271.36Z" fill="#fff"/><path d="M247.853,3293.5c-.363.244-.725.49-1.089.733a1.869,1.869,0,0,1-1.067.305.8.8,0,0,1-.115-.555l2-.888A.442.442,0,0,1,247.853,3293.5Z" fill="#fff"/><path d="M285.725,3261.358a1.958,1.958,0,0,1-.949-.449,5.47,5.47,0,0,0,.472-1.561l.958.236c.007.23-.674.408-.051.684l.023.027-.014.033c-.2.013-.457.012-.391.289S285.653,3261.108,285.725,3261.358Z" fill="#fff"/><path d="M247,3278.252a.738.738,0,0,1,.9.642c.072.281.235.538.336.813.253.7.231.718-.529.625-.009-.31.017-.643-.442-.646l-.036-.441C247.275,3278.886,247.034,3278.593,247,3278.252Z" fill="#fff"/><path d="M306.368,3286.8l.3-1.327c.215.063.273.224.328.428.075.275.187.564.567.545-.105.439-.01.929-.333,1.312-.23,0-.325-.141-.385-.348A.872.872,0,0,0,306.368,3286.8Z" fill="#fff"/><path d="M266.542,3289.668c-.384-.091-.521-.407-.674-.72a3.824,3.824,0,0,0-.6-1.111,1.5,1.5,0,0,1,.276-.9c.4-.1.354.4.627.471a1.467,1.467,0,0,0,.415,1.8l.127.323Z" fill="#fff"/><path d="M291.4,3300.971a.414.414,0,0,1,.167-.294c1.026.968,1.617,1,4.007.187.075.287-.085.4-.328.44C293.935,3301.534,292.585,3302.206,291.4,3300.971Z" fill="#fff"/><path d="M282.143,3255.239a1.052,1.052,0,0,1,.033-1.788l.329-.025c-.018.077-.03.155-.055.229-.063.192-.148.422.088.519.313.13.178-.206.261-.318.132-.177.228-.219.311.028-.077.273,0,.627-.384.742C282.156,3254.424,282.156,3254.424,282.143,3255.239Z" fill="#fff"/><path d="M275.742,3301.482a.053.053,0,0,0-.009-.081,3.708,3.708,0,0,1,1.089-.236c.243-.047.494-.168.42-.388-.177-.522.248-1.241-.586-1.565,1.031-.133,1.062-.1.916.836a1.419,1.419,0,0,0-.033.342c.084.892.088.906-.813,1.011C276.4,3301.439,276.082,3301.612,275.742,3301.482Z" fill="#fff"/><path d="M333.339,3283c-.065-.035-.182-.064-.187-.107-.075-.587-.513-.979-.771-1.465a2.326,2.326,0,0,1,.41-.326c.219-.106.311-.523.6-.36.208.116.085.442.077.668C333.449,3281.945,333.385,3282.474,333.339,3283Z" fill="#fff"/><path d="M278.74,3272.9a.512.512,0,0,1,.445.513c.007.162.022.311.233.322a3.176,3.176,0,0,1-.5,1.594C278.174,3274.555,278.682,3273.719,278.74,3272.9Z" fill="#fff"/><path d="M284.284,3254.28a2.779,2.779,0,0,1-.35.81c-.232.025-.261.223-.3.386-.117.475-.215.955-.321,1.433a.68.68,0,0,1-.321-.9,1.268,1.268,0,0,0,.118-.683.151.151,0,0,1,.031-.1c.212.009.3-.082.334-.3.05-.343.15-.679.229-1.018C283.929,3253.979,284,3254.294,284.284,3254.28Z" fill="#fff"/><path d="M309.844,3270.213l.941.093c-.018.447.3.746.484,1.108q-.309.389-.616.778a.233.233,0,0,1-.244-.126c.2-.2.136-.354-.1-.468C310.351,3271.07,309.831,3270.732,309.844,3270.213Z" fill="#fff"/><path d="M318.021,3287.159c-.144.521.074,1.222-.706,1.43-.071-.125-.1-.279-.24-.356a2.872,2.872,0,0,1,.251-1.782C317.715,3286.533,317.538,3287.17,318.021,3287.159Z" fill="#fff"/><path d="M313.508,3301.547l.005-.146c1.342-.166,2.7.031,4.1-.2-.041.314-.189.41-.494.4C315.918,3301.573,314.713,3301.564,313.508,3301.547Z" fill="#fff"/><path d="M245.468,3279.942c-.249-.658-.49-1.318-.751-1.971a1.39,1.39,0,0,1-.1-.518.566.566,0,0,1,.5.509c.048.6.4.564.815.419-.01.225.2.332.279.5A4.635,4.635,0,0,1,245.468,3279.942Z" fill="#fff"/><path d="M277.737,3277.637a4.793,4.793,0,0,1,.449-1.936,2.661,2.661,0,0,1,.191,2.44C278.054,3278.113,278.022,3277.713,277.737,3277.637Z" fill="#fff"/><path d="M282.527,3283.023c-.081-.047-.212-.076-.236-.143a15.539,15.539,0,0,1-.876-2.145c.824-.012,1.084.259,1.038,1.106-.005.1-.024.2.063.261C282.932,3282.407,282.664,3282.715,282.527,3283.023Z" fill="#fff"/><path d="M264.483,3291.8a2.2,2.2,0,0,1,.185-1.683c.171.02.362.006.383.254a.362.362,0,0,0,.313.362q-.1.521-.2,1.042c-.042.217-.094.427-.352.488C264.676,3292.127,264.766,3291.831,264.483,3291.8Z" fill="#fff"/><path d="M305.077,3270.881c-.575.264-1.135-.139-1.752-.015.247-.631.812-.836,1.287-1.142C304.762,3270.111,305.074,3270.434,305.077,3270.881Z" fill="#fff"/><path d="M318.021,3287.159c-.483.011-.306-.626-.7-.708-.019-.181.1-.284.21-.4.18-.2.439-.373.056-.657-.127-.094-.007-.334.092-.489.27.024.326.454.664.352A4.914,4.914,0,0,1,318.021,3287.159Z" fill="#fff"/><path d="M327.522,3284.751a2.291,2.291,0,0,1,.817-.167,5.4,5.4,0,0,0,.837,1.756c-.027.2.082.426-.131.581-.408-.122-.318-.644-.661-.819.184-.424.069-.639-.418-.607a1.194,1.194,0,0,1-.288-.055Z" fill="#fff"/><path d="M294.783,3308.742l-.056,1.32a1.449,1.449,0,0,0-.921.23l-.005-.778c.1-.051.13-.1,0-.158l-.018-.719A1.123,1.123,0,0,1,294.783,3308.742Z" fill="#fff"/><path d="M309.152,3279.809c-.388.2-.42.558-.406.935a.509.509,0,0,1-.364-.46.36.36,0,0,0-.426-.362l.358-1.423c.323.042.382.3.439.552A1.215,1.215,0,0,0,309.152,3279.809Z" fill="#fff"/><path d="M319.228,3270.434c-.374.513-.738,1.049-1.506.648-.044-.17-.082-.344-.273-.418.1-.529.633-.488.965-.636.283-.127.074.367.4.588l.383-.539Z" fill="#fff"/><path d="M307.956,3279.922a.36.36,0,0,1,.426.362.509.509,0,0,0,.364.46c.1.666-.576.866-.8,1.338l-.17-.166c.046-.082.147-.221.13-.238-.549-.532.255-1.066-.005-1.595C307.884,3280.047,307.936,3279.976,307.956,3279.922Z" fill="#fff"/><path d="M290.1,3318.435c.451-.005.9-.013,1.351-.012.216,0,.38.068.4.327s-.124.323-.348.355a2.924,2.924,0,0,1-1.389,0Z" fill="#fff"/><path d="M292.839,3280.421l.172.637c-.794-.047-1.375.509-2.074.73,0-.157-.108-.2-.241-.216A3.39,3.39,0,0,1,292.839,3280.421Z" fill="#fff"/><path d="M236.858,3290.1a15.573,15.573,0,0,1,1.358,3.285A5.181,5.181,0,0,1,236.858,3290.1Z" fill="#fff"/><path d="M306.368,3286.8a.872.872,0,0,1,.476.61c.06.207.155.344.385.348.093.511-.578.615-.573,1.078-.406-.01-.287-.486-.552-.621A3.315,3.315,0,0,1,306.368,3286.8Z" fill="#fff"/><path d="M263.689,3283.488c-.353-.094-.365-.426-.467-.686a4.143,4.143,0,0,1-.557-1.5c0-.291-.291-.331-.483-.448.1-.265.268-.259.45-.087a1.383,1.383,0,0,1,.559.868.954.954,0,0,0,.349.65C263.917,3282.615,263.733,3283.073,263.689,3283.488Z" fill="#fff"/><path d="M266.717,3289.53l-.127-.323a1.548,1.548,0,0,1,1.182.224c-.012.339.3.593.252.941-.15.04-.3.088-.451.118-.513.1-.746-.1-.764-.624A1.489,1.489,0,0,0,266.717,3289.53Z" fill="#fff"/><path d="M296.064,3312.49a5.477,5.477,0,0,1-.136-1.614c-.019-.3.227-.38.363-.554l0,0,.243.01a4.2,4.2,0,0,1,0,1.969Z" fill="#fff"/><path d="M348.219,3285.378c.26.057.331.471.68.358.292.655-.012,1.271-.12,1.9a4.9,4.9,0,0,1-.724-1.231A3.585,3.585,0,0,0,348.219,3285.378Z" fill="#fff"/><path d="M348.055,3286.406a4.9,4.9,0,0,0,.724,1.231,9.727,9.727,0,0,1-.269,1.364.821.821,0,0,1-.677-.906c.409-.3.633-.614.164-1.06C347.778,3286.827,347.916,3286.6,348.055,3286.406Z" fill="#fff"/><path d="M309.152,3279.809a1.215,1.215,0,0,1-.4-.758c-.057-.247-.116-.51-.439-.552a2.99,2.99,0,0,1,.231-.95c.33.025.376.3.455.533s.161.447.47.411A3.337,3.337,0,0,1,309.152,3279.809Z" fill="#fff"/><path d="M328.385,3286.1c.342.175.252.7.66.819a1.822,1.822,0,0,1-.328,1.311c-.213-.13-.193-.546-.574-.469C327.918,3287.165,328.3,3286.655,328.385,3286.1Z" fill="#fff"/><path d="M339.685,3286.813c-.286-.1-.351-.35-.395-.606a.5.5,0,0,0-.453-.466,3.432,3.432,0,0,1,.468-1.186c.255,0,.268.356.521.363-.091.18-.208.314-.1.577A3.032,3.032,0,0,1,339.685,3286.813Z" fill="#fff"/><path d="M280.259,3301.469c1.256-.336,2.486.073,3.679-.306-.008.307-.152.444-.372.445-1.055.006-2.11,0-3.165-.013C280.358,3301.594,280.315,3301.521,280.259,3301.469Z" fill="#fff"/><path d="M280.946,3289.065c-.358-.084-.313-.657-.763-.629a2.249,2.249,0,0,1,.419-1.421c.274.137.293.523.605.623A7.947,7.947,0,0,1,280.946,3289.065Z" fill="#fff"/><path d="M285.72,3280.986c.158-.291.461-.419.7-.618.1-.079.212-.231.345-.108a.362.362,0,0,1,.039.387,7.872,7.872,0,0,0-.518,1.405C285.63,3281.944,285.894,3281.349,285.72,3280.986Z" fill="#fff"/><path d="M290.464,3313.341c.092.251.2.478,0,.754s.29.526.125.842a2.712,2.712,0,0,1-.815.391c-.154-.177.355-.526-.186-.651-.1-.022.374-.344.245-.656a2.064,2.064,0,0,1-.074-.28Z" fill="#fff"/><path d="M309.47,3278.493c-.309.036-.391-.176-.47-.411s-.125-.508-.455-.533c.072-.451.521-.5.791-.739l.446.145A6.614,6.614,0,0,1,309.47,3278.493Z" fill="#fff"/><path d="M272.466,3284.306c.238.035.259.218.326.408.1.286.107.647.464.789a2.59,2.59,0,0,1-.6,1.191l-.374-.508A4.637,4.637,0,0,0,272.466,3284.306Z" fill="#fff"/><path d="M262.66,3298.65c.134.234.2.545.578.5a1.616,1.616,0,0,1-.433,1.814l-.253-.514a1.136,1.136,0,0,0,.016-1.14C262.48,3299.082,262.338,3298.83,262.66,3298.65Z" fill="#fff"/><path d="M322.909,3289.621l.229.851a1.221,1.221,0,0,1-1.083-1.335,1.315,1.315,0,0,1,.139-.9c.354.231.171.863.713.952Z" fill="#fff"/><path d="M255.106,3286.329a3.3,3.3,0,0,1,.537-1.345.647.647,0,0,0,.524.408c-.2.422.082.974-.359,1.333,0,0,.062.085.1.131l.074.216,0,.023c-.192-.056-.373-.115-.431-.35A.51.51,0,0,0,255.106,3286.329Z" fill="#fff"/><path d="M239.516,3294.29c.018-.464-.387-.817-.339-1.289l1.54,1.072-.022.465C240.287,3294.526,239.846,3294.674,239.516,3294.29Z" fill="#fff"/><path d="M349.677,3280.233c.247-.514.01-1.116.3-1.623l.579.244c-.008.65-.4,1.242-.286,1.91C349.973,3280.7,349.963,3280.31,349.677,3280.233Z" fill="#fff"/><path d="M246.211,3278.886c-.083-.173-.289-.28-.279-.5.293-.567.677-.383,1.07-.129.032.341.273.634.226.993-.334-.112-.384.288-.635.354C246.422,3279.384,246.724,3278.908,246.211,3278.886Z" fill="#fff"/><path d="M255.106,3286.329a.51.51,0,0,1,.445.416c.058.235.239.294.431.35q.03.809.058,1.616c-.377-.1-.381-.474-.453-.739a1.127,1.127,0,0,0-.485-.682C255.076,3286.97,254.855,3286.648,255.106,3286.329Z" fill="#fff"/><path d="M339.049,3301.519c0-.031,0-.062,0-.092,1.208-.257,2.453.087,3.694-.267-.068.309-.179.454-.48.443C341.192,3301.564,340.12,3301.545,339.049,3301.519Z" fill="#fff"/><path d="M349.6,3283.6c-.393-.143-.254-.724-.687-.834l.348-1.189c.329.018.347.492.7.478Z" fill="#fff"/><path d="M305.2,3269.479c.521-.058.775.551,1.287.516a.9.9,0,0,1,.122.607c-.362-.075-.538.457-.93.285C305.659,3270.369,305.1,3270.036,305.2,3269.479Z" fill="#fff"/><path d="M351.971,3269.671c.31.343.178,1.025.84,1.1a1.89,1.89,0,0,1-.466,1.188l-.323-.019c.209-.516-.108-.972-.181-1.453A.946.946,0,0,1,351.971,3269.671Z" fill="#fff"/><path d="M275.132,3288.673c.188.32-.017.839.5.989a.415.415,0,0,1-.272.467,4.8,4.8,0,0,0-.968.536A5.679,5.679,0,0,1,275.132,3288.673Z" fill="#fff"/><path d="M266.844,3281.36a1.069,1.069,0,0,1,.226-.258c.2-.12.364-.452.629-.3.235.134-.022.382-.022.582,0,.114-.023.236.1.306a.416.416,0,0,0,.263.383l-.615.456A2.042,2.042,0,0,1,266.844,3281.36Z" fill="#fff"/><path d="M288.548,3287.278c-.331-.218-.306-.653-.565-.925-.105-.111-.166-.247-.338-.262a2.13,2.13,0,0,1,.339-1.063c.3.161.2.709.678.708Z" fill="#fff"/><path d="M349.958,3282.058c-.35.014-.368-.46-.7-.478a2.391,2.391,0,0,1,.416-1.347c.286.077.3.462.59.531Z" fill="#fff"/><path d="M263.022,3286.21a4.011,4.011,0,0,1-.577,1.2c-.137-.154-.058-.474-.377-.488a2.3,2.3,0,0,1,.355-1.544C262.65,3285.633,262.658,3286.049,263.022,3286.21Z" fill="#fff"/><path d="M329.172,3283.23c.225.258.1.766.594.832-.086.43-.012.919-.457,1.213a3.874,3.874,0,0,1-.486-.963C328.888,3283.935,328.724,3283.484,329.172,3283.23Z" fill="#fff"/><path d="M285.248,3259.348a5.47,5.47,0,0,1-.472,1.561.709.709,0,0,1-.494-.328q.127-.721.254-1.441c.008-.033.014-.065.019-.1A1.751,1.751,0,0,1,285.248,3259.348Z" fill="#fff"/><path d="M306.294,3291.585c-.291-.011-.363-.268-.507-.446-.13-.16-.175-.417-.454-.413a5.208,5.208,0,0,1,.322-1.194c.363.427.421,1.034.843,1.426A.919.919,0,0,1,306.294,3291.585Z" fill="#fff"/><path d="M347.833,3288.095a.821.821,0,0,0,.677.906,1.59,1.59,0,0,1-.528.908c-.194-.009-.243-.149-.3-.3-.075-.2-.149-.414-.42-.424C347.416,3288.8,347.309,3288.283,347.833,3288.095Z" fill="#fff"/><path d="M299.142,3319.1h-1.9l0-.574,1.891-.093Z" fill="#fff"/><path d="M280.858,3285.741a4.655,4.655,0,0,1,.352-1.188c.356.038.352.444.6.591-.215.453.121,1-.243,1.427a.578.578,0,0,1-.364-.554C281.215,3285.771,281.058,3285.727,280.858,3285.741Z" fill="#fff"/><path d="M288.813,3255.113a3.462,3.462,0,0,1,1.546-.038l0,.642-1.667.088Z" fill="#fff"/><path d="M253.759,3270.306c.233-.24-.032-.38-.118-.55a.437.437,0,1,1,.484-.623c.153.437.548.783.484,1.3A.618.618,0,0,1,253.759,3270.306Z" fill="#fff"/><path d="M332.745,3287.641c.531.384.508,1.063.827,1.562.113.177.092.424.264.581l-.338.258c-.312-.217-.366-.63-.655-.864A6.882,6.882,0,0,1,332.745,3287.641Z" fill="#fff"/><path d="M322.174,3280.355c.23-.165.446-.247.616.078a.206.206,0,0,0,.291.1c.129-.051.293-.2.375.039a.533.533,0,0,1-.067.6c-.192.19-.4.367-.594.549Z" fill="#fff"/><path d="M280.858,3285.741c.2-.014.357.03.348.276a.578.578,0,0,0,.364.554c-.069.373-.029.783-.363,1.067-.312-.1-.331-.486-.605-.623Q280.731,3286.378,280.858,3285.741Z" fill="#fff"/><path d="M278.943,3280.92l.954-.271a3.772,3.772,0,0,0,.48,1.292l-1.076-.019Z" fill="#fff"/><path d="M257.1,3290.682a1.783,1.783,0,0,1-.232-1.074c.382.443.993.095,1.411.409a.714.714,0,0,0,.116.456A2.625,2.625,0,0,1,257.1,3290.682Z" fill="#fff"/><path d="M266.175,3287.4c-.273-.072-.228-.567-.627-.471.175-.542-.005-1.131.222-1.666.379.2.345.663.594.945A2.459,2.459,0,0,1,266.175,3287.4Z" fill="#fff"/><path d="M284.986,3284.19c-.034-.3.145-.41.4-.489.2-.062.344-.291.105-.367-.66-.208-.266-.594-.221-.926.326.1.179.68.645.637a2.638,2.638,0,0,1-.266,1.52C285.33,3284.608,285.277,3284.189,284.986,3284.19Z" fill="#fff"/><path d="M291.918,3297.39l-.28.005a2.942,2.942,0,0,1,3.181-.765c.108.032.261.045.185.22s-.229.126-.352.063A2.474,2.474,0,0,0,291.918,3297.39Z" fill="#fff"/><path d="M285.912,3283.045c-.466.043-.319-.538-.645-.637.2-.459-.164-1.1.453-1.422.174.363-.09.958.566,1.066C286.3,3282.436,285.96,3282.685,285.912,3283.045Z" fill="#fff"/><path d="M243.9,3275.642c-.36.033-.331-.5-.686-.471a2.507,2.507,0,0,1,.686-1.2.378.378,0,0,1,.377.376Z" fill="#fff"/><path d="M289.724,3260.61c.092.339-.151.651-.079.988a3.849,3.849,0,0,1-1.069.131l-.008-.944Z" fill="#fff"/><path d="M307.562,3286.449c-.38.019-.492-.27-.567-.545-.055-.2-.113-.365-.328-.428a2.019,2.019,0,0,1,.315-.926c.3.028.365.234.351.487a.43.43,0,0,0,.428.5Z" fill="#fff"/><path d="M266.961,3283.192c-.046.232-.344.172-.438.4.412.216.687.5.267,1.017-.31-.6-.7-1.131-.454-1.849a2.013,2.013,0,0,0,.02-.583A1.161,1.161,0,0,1,266.961,3283.192Z" fill="#fff"/><path d="M289.754,3313.741a2.064,2.064,0,0,0,.074.28c.129.312-.345.634-.245.656.541.125.032.474.186.651l-.56.287-.165-1.512A1.437,1.437,0,0,1,289.754,3313.741Z" fill="#fff"/><path d="M268.044,3282.073a.416.416,0,0,1-.263-.383,3.087,3.087,0,0,1,1.426-.831,1.571,1.571,0,0,0,.131.794Z" fill="#fff"/><path d="M318.966,3283l-.34,1.192c-.343-.058-.265-.546-.612-.6.216-.409.025-.9.26-1.3C318.751,3282.291,318.583,3282.915,318.966,3283Z" fill="#fff"/><path d="M295.1,3283.007c-.3-.434-.744-.782-.75-1.391,0-.339-.413-.521-.427-.879a.47.47,0,0,1,.646.268A3.613,3.613,0,0,1,295.1,3283.007Z" fill="#fff"/><path d="M303.89,3258.675l-.24,1.148-.828-.02.238-1.215Z" fill="#fff"/><path d="M328.823,3284.312a3.874,3.874,0,0,0,.486.963c-.061.353.319.761-.133,1.065a5.4,5.4,0,0,1-.837-1.756A.636.636,0,0,1,328.823,3284.312Z" fill="#fff"/><path d="M325.807,3281.837c-.175.185-.365.357-.52.557-.141.182-.28.268-.493.135-.177-.111-.447-.149-.454-.41-.006-.217.2-.333.368-.425.254-.142.533-.241.8-.359C325.619,3281.5,325.575,3281.748,325.807,3281.837Z" fill="#fff"/><path d="M248.8,3278.394a10.4,10.4,0,0,0,.694,1.9c-.83.155-.722-.648-1.023-1.023a.578.578,0,0,1,.1-.866C248.618,3278.362,248.723,3278.394,248.8,3278.394Z" fill="#fff"/><path d="M305.114,3294.186c-.056.208-.261.211-.407.292-.22.123-.415.517-.65.322-.2-.169.086-.492.156-.746.077-.28.187-.551.282-.825C304.988,3293.363,305,3293.809,305.114,3294.186Z" fill="#fff"/><path d="M287.505,3261.726a3.178,3.178,0,0,1-.944-.132,1.142,1.142,0,0,1,.389-.949l.788.134A1.263,1.263,0,0,1,287.505,3261.726Z" fill="#fff"/><path d="M240.7,3294.538l.022-.465a5.179,5.179,0,0,0,1.535.342l-.007.441c-.18.261-.373.364-.664.12C241.326,3294.763,240.794,3295.088,240.7,3294.538Z" fill="#fff"/><path d="M284.88,3288.1c-.052.3-.09.613-.163.912-.025.1-.063.31-.268.182a1.6,1.6,0,0,1-.153-2.034C284.366,3287.554,284.34,3288,284.88,3288.1Z" fill="#fff"/><path d="M256.167,3285.392a.647.647,0,0,1-.524-.408,3.974,3.974,0,0,1,.72-1.3c.019.3.011.614.425.657C256.564,3284.682,256.564,3285.154,256.167,3285.392Z" fill="#fff"/><path d="M300.086,3256.66a1.515,1.515,0,0,1,.758.074c.153.069.468-.022.38.307-.062.23-.081.543-.445.53-.271-.01-.552.083-.809-.076C299.951,3257.208,300.151,3256.953,300.086,3256.66Z" fill="#fff"/><path d="M271.225,3280.609a5.9,5.9,0,0,1,.721,1.818c-.251.164-.291-.08-.364-.206a.731.731,0,0,0-.588-.411c-.038-.429-.335-.8-.267-1.255Z" fill="#fff"/><path d="M328.143,3287.763c.381-.077.361.339.574.469-.125.433.071.884-.075,1.316-.434-.251-.47-.83-.895-1.088C327.778,3288.17,328.053,3288.019,328.143,3287.763Z" fill="#fff"/><path d="M350.55,3276.34a1.878,1.878,0,0,0,.308-1.421,1.723,1.723,0,0,1,.3,2.147C350.894,3276.875,350.964,3276.4,350.55,3276.34Z" fill="#fff"/><path d="M283.311,3256.909c.106-.478.2-.958.321-1.433.041-.163.07-.361.3-.386l-.113.832c.032.109-.087.32-.009.306.486-.087.349.176.264.42-.11.314.205.317.332.457A1.147,1.147,0,0,1,283.311,3256.909Z" fill="#fff"/><path d="M318.966,3283c-.383-.089-.215-.713-.692-.712.093-.392-.194-.863.248-1.182.391.365.309,1.027.828,1.311Z" fill="#fff"/><path d="M290.357,3255.717l0-.642a7.894,7.894,0,0,1,1.5.065c.085.236-.068.442-.083.666A6.767,6.767,0,0,1,290.357,3255.717Z" fill="#fff"/><path d="M300.57,3311.87c-.007-.078-.046-.173-.014-.231.185-.342-.613-.251-.287-.721.156-.224.049-.63.062-.954.426,0,.612.223.593.632a2.981,2.981,0,0,1-.139,1.341Z" fill="#fff"/><path d="M344.381,3283.474a.4.4,0,0,1-.55.261,6,6,0,0,0-.862-.117l-.117-.613c.429-.285.864-.028,1.3-.013C344.189,3283.17,344.068,3283.426,344.381,3283.474Z" fill="#fff"/><path d="M247.225,3271.714c-.332.256-.652.532-1,.759a.4.4,0,0,1-.537-.053c-.15-.209.031-.362.194-.472a2.885,2.885,0,0,1,1-.584A.667.667,0,0,0,247.225,3271.714Z" fill="#fff"/><path d="M305.672,3259.837l.11-1,1.075.1c.036.332-.342.556-.233.906Z" fill="#fff"/><path d="M352.022,3271.939l.323.019c-.024.5.152,1.048-.346,1.434-.342-.134-.287-.616-.646-.735C351.4,3272.25,351.747,3272.129,352.022,3271.939Z" fill="#fff"/><path d="M286.95,3260.645a1.142,1.142,0,0,0-.389.949,2.351,2.351,0,0,1-.836-.236c-.072-.25.111-.474.048-.741s.195-.276.391-.289Z" fill="#fff"/><path d="M248.989,3291.887a4.179,4.179,0,0,1,.873-1.154c.217.1.253.326.369.5-.277.34-.563.673-.829,1.021-.212.278-.2.018-.264-.093A.309.309,0,0,0,248.989,3291.887Z" fill="#fff"/><path d="M295.1,3311.028c.05.215-.133.527.25.6-.407.207-.329.819-.806.968-.236-.086-.051-.51-.4-.5C294.42,3311.7,294.5,3311.133,295.1,3311.028Z" fill="#fff"/><path d="M284.408,3257.1c-.127-.14-.442-.143-.332-.457.085-.244.222-.507-.264-.42-.078.014.041-.2.009-.306.16.021.377.024.4-.144.072-.566.489-.419.828-.446l.29.357-.565.119c-.46-.029-.3.345-.353.566-.023.094-.088.266.063.3.081.017.191-.1.288-.163l-.022.464a.036.036,0,0,0,0,.058Z" fill="#fff"/><path d="M270.727,3280.555c-.068.451.229.826.267,1.255a2,2,0,0,0-1.07-.227c-.018-.214-.163-.405-.11-.631A.932.932,0,0,1,270.727,3280.555Z" fill="#fff"/><path d="M339.866,3283.7a1.865,1.865,0,0,1,.609-.937,1.5,1.5,0,0,1,.6,1.075c-.3,0-.507.286-.816.251A.391.391,0,0,0,339.866,3283.7Z" fill="#fff"/><path d="M303.06,3258.588l-.238,1.215-.7-.028a.132.132,0,0,0-.017-.087,2.783,2.783,0,0,1,.248-1.157Z" fill="#fff"/><path d="M282.505,3253.426l-.329.025c-.008-.095.018-.215-.03-.281-.207-.285-.322-.623-.013-.833s.63-.023.863.257c-.2.244-.063.547-.147.811Z" fill="#fff"/><path d="M318.014,3283.6c.347.053.269.541.612.6.031.385-.41.647-.278,1.059-.338.1-.394-.328-.664-.352A4.577,4.577,0,0,1,318.014,3283.6Z" fill="#fff"/><path d="M290.83,3289.779c-.017.255.284.264.351.454-.456.257-.959-.021-1.425.127a2.081,2.081,0,0,1-.239-.92c.123.044.307.052.359.139C290.132,3290,290.486,3289.842,290.83,3289.779Z" fill="#fff"/><path d="M278.943,3280.92l.358,1a3.44,3.44,0,0,0-1.188.36c.017-.183-.009-.337-.24-.351A5.832,5.832,0,0,1,278.943,3280.92Z" fill="#fff"/><path d="M285.343,3285.734a4.543,4.543,0,0,1-.332,1.193l-.456-.127c.123-.509-.117-1.056.16-1.549C285.081,3285.209,285.024,3285.716,285.343,3285.734Z" fill="#fff"/><path d="M313.639,3270.32c-.021.189.019.334.246.345-.24.688-.792.264-1.205.337l-.245-.607C312.81,3269.936,313.242,3270.417,313.639,3270.32Z" fill="#fff"/><path d="M337.359,3283.359a19.468,19.468,0,0,1-1.014,2.066l-.137-.159c-.032-.8.522-1.359.838-2.015Z" fill="#fff"/><path d="M262.627,3283.341c.309.018.494.116.48.491s.254.711.18,1.1l-.155.2c-.339-.055-.214-.61-.629-.583A5.251,5.251,0,0,1,262.627,3283.341Z" fill="#fff"/><path d="M317.449,3270.664c.191.074.229.248.273.418-.39.169-.75-.042-1.123-.089,0-.257.037-.532-.333-.572.169-.471.6-.2.9-.277.231-.064.1.295.159.455C317.351,3270.673,317.395,3270.666,317.449,3270.664Z" fill="#fff"/><path d="M288.662,3285.736c-.475,0-.374-.547-.678-.708a1.937,1.937,0,0,1,.492-.982.788.788,0,0,1,.473.319c-.046.146-.051.33-.146.43A.839.839,0,0,0,288.662,3285.736Z" fill="#fff"/><path d="M311.269,3271.414c-.18-.362-.5-.661-.484-1.108a1.027,1.027,0,0,1,1.212.09c-.263.191.051.4-.024.6C311.642,3270.974,311.37,3271.05,311.269,3271.414Z" fill="#fff"/><path d="M254.85,3287.76l1.063,2.448a1.363,1.363,0,0,1-.942-1.145C254.9,3288.631,254.589,3288.222,254.85,3287.76Z" fill="#fff"/><path d="M288.337,3274.819c-.566.4-.9,1.06-1.646,1.447a4.97,4.97,0,0,1,1.4-1.822C288.164,3274.575,288.354,3274.629,288.337,3274.819Z" fill="#fff"/><path d="M322.174,3280.355l.621,1.369c-.067.113-.253.277-.27.2-.092-.41-.533-.206-.7-.446.071-.354-.178-.627-.238-.948Z" fill="#fff"/><path d="M277.434,3281.507c-.154-.193-.213-.477-.515-.525a3.653,3.653,0,0,1,.286-1.177c.368-.023.416.319.589.519A5.053,5.053,0,0,1,277.434,3281.507Z" fill="#fff"/><path d="M350.55,3276.34c.414.064.344.535.609.726a1.744,1.744,0,0,1-.23.834c-.323-.023-.335-.506-.7-.469A2.524,2.524,0,0,1,350.55,3276.34Z" fill="#fff"/><path d="M253.058,3286.688l-.741-1.078a2.867,2.867,0,0,1,.28-.819c.4.3.361.9.793,1.174Z" fill="#fff"/><path d="M266.961,3283.192a1.161,1.161,0,0,0-.605-1.015c-.171-.471.252-.588.488-.817a2.042,2.042,0,0,0,.585,1.169C267.354,3282.807,267.341,3283.129,266.961,3283.192Z" fill="#fff"/><path d="M290.1,3318.435l.017.674-1.308,0-.011-.665Z" fill="#fff"/><path d="M310.031,3274.958c-.5-.2-.368-.784-.676-1.1.013-.094,0-.256.043-.272.4-.154.328-.427.224-.729-.014-.042.072-.118.112-.179q.163.172.329.344a1.245,1.245,0,0,1-.143.714c-.175.275-.061.508.27.6l0,0Z" fill="#fff"/><path d="M309.844,3270.213c-.013.519.507.857.467,1.385-.164,0-.4-.067-.4-.175-.009-.578-.481-.425-.782-.541.051-.273-.241-.429-.234-.687Z" fill="#fff"/><path d="M237.844,3290.116c-.206-.217-.246-.566-.557-.7.034-.491.495-.731.688-1.308C238.365,3288.918,237.916,3289.5,237.844,3290.116Z" fill="#fff"/><path d="M299.142,3319.1l-.006-.666,1.2-.023a1.045,1.045,0,0,1,.113.689Z" fill="#fff"/><path d="M280.377,3281.941a3.772,3.772,0,0,1-.48-1.292c.627-.31.461.491.81.59.067.019.089.2.126.313.047.139.209.293.064.422A.361.361,0,0,1,280.377,3281.941Z" fill="#fff"/><path d="M307.689,3259.03c.592-.088.937.267,1.306.716a4.026,4.026,0,0,1-1.423.094Z" fill="#fff"/><path d="M266.364,3286.212c-.249-.282-.215-.743-.594-.945a3.263,3.263,0,0,1,.272-.984C266.429,3284.9,266.88,3285.474,266.364,3286.212Z" fill="#fff"/><path d="M301.641,3312.454c.128.013.264,0,.355.12l-.122.484a4.2,4.2,0,0,1-1.187-.128c.007-.235.036-.48-.246-.6.131-.2.326-.064.489-.1A1.2,1.2,0,0,0,301.641,3312.454Z" fill="#fff"/><path d="M338.691,3298v-.24a15.737,15.737,0,0,0,2.421.044C340.344,3298.224,339.5,3297.916,338.691,3298Z" fill="#fff"/><path d="M279.9,3298.007v-.25a17.351,17.351,0,0,0,2.443.044C281.56,3298.237,280.707,3297.891,279.9,3298.007Z" fill="#fff"/><path d="M305.114,3294.186c-.118-.377-.126-.823-.619-.957-.036-.32.153-.546.308-.837a6.271,6.271,0,0,1,.687,1.237C305.706,3293.975,305.384,3294.094,305.114,3294.186Z" fill="#fff"/><path d="M300.086,3256.66c.065.293-.135.548-.116.835l-1.062-.016c-.068-.335.345-.553.22-.9Z" fill="#fff"/><path d="M293.915,3259.384c.193.152.426.075.639.113a5.456,5.456,0,0,1-1.578.968l.22-1.062Z" fill="#fff"/><path d="M265.364,3290.732a.362.362,0,0,1-.313-.362c-.021-.248-.212-.234-.383-.254a4.115,4.115,0,0,1,.28-1.051,2.159,2.159,0,0,1,.7,1.142C265.324,3290.262,265.494,3290.577,265.364,3290.732Z" fill="#fff"/><path d="M288.8,3316.923c.052-.3-.08-.62.085-.912l.121.09.04-.09-.012,0c.306.113.554-.138.843-.135l-.009.693Z" fill="#fff"/><path d="M329.514,3297.917l.141.169a1.848,1.848,0,0,0-.171.3c-.165.468-.67.779-.618,1.345a.282.282,0,0,0-.149.25c-.228.093-.305.331-.469.485l-.219-.021C328.412,3299.537,329.048,3298.777,329.514,3297.917Z" fill="#fff"/><path d="M248.989,3291.887a.309.309,0,0,1,.149.272c-.606.276-.594,1.145-1.285,1.341a.442.442,0,0,0-.269-.405Z" fill="#fff"/><path d="M291.419,3283.7c-.021-.282-.247-.336-.455-.408.143-.19.213-.545.547-.386.272.13.5-.025.741-.007a.974.974,0,0,1,0,.8Z" fill="#fff"/><path d="M273.48,3298.444c-.184-.008-.229-.134-.243-.286a3.121,3.121,0,0,1,1.916-1.48l-.005.214A3.567,3.567,0,0,0,273.48,3298.444Z" fill="#fff"/><path d="M347.261,3289.183c.271.01.345.226.42.424.058.153.107.293.3.3a2.7,2.7,0,0,1-1.072.638A2.939,2.939,0,0,1,347.261,3289.183Z" fill="#fff"/><path d="M350.232,3277.431c.362-.037.374.446.7.469a3.9,3.9,0,0,0-.376.954l-.579-.244A4.074,4.074,0,0,1,350.232,3277.431Z" fill="#fff"/><path d="M290.828,3315.54a.811.811,0,0,1,.462-.234c.177-.054.4-.208.518.049a.431.431,0,0,1-.229.595c-.279.124-.537.347-.878.293Z" fill="#fff"/><path d="M300.441,3312.334c.282.116.253.361.246.6a4.436,4.436,0,0,1-1.31.11l0-.68Z" fill="#fff"/><path d="M284.75,3257.03a.036.036,0,0,1,0-.058c.332-.073.354-.371.445-.617.063-.17.02-.41.3-.433l-.007,0c-.006.5-.361.993.01,1.485a1.992,1.992,0,0,1-.6.666c-.24-.248-.079-.552-.114-.828Z" fill="#fff"/><path d="M336.208,3285.266l.137.159c-.324.547-.653,1.092-.969,1.643-.064.112-.113.222-.254.145-.106-.058-.076-.173-.022-.257C335.467,3286.391,335.6,3285.675,336.208,3285.266Z" fill="#fff"/><path d="M276.462,3283.6h.126c0,.1-.035.243.013.282.566.455.182.922.035,1.387-.342-.126-.128-.673-.557-.733A1.1,1.1,0,0,1,276.462,3283.6Z" fill="#fff"/><path d="M287.505,3261.726a1.263,1.263,0,0,0,.233-.947l.83.006.008.944Z" fill="#fff"/><path d="M306.606,3270.6a.9.9,0,0,0-.122-.607l1.2.2.132.7A1.7,1.7,0,0,1,306.606,3270.6Z" fill="#fff"/><path d="M295.6,3314.138l-1.091.471-.14-.641a4.456,4.456,0,0,1,1.211-.539C295.566,3313.666,295.307,3313.91,295.6,3314.138Z" fill="#fff"/><path d="M264.483,3291.8c.283.032.193.328.33.463a2.934,2.934,0,0,0-.323.4c-.144.255-.336.519.008.787.159.124.109.313.057.483-.3-.044-.32-.486-.663-.474C263.917,3292.846,264.359,3292.379,264.483,3291.8Z" fill="#fff"/><path d="M307.689,3259.03l-.117.81h-.948c-.109-.35.269-.574.233-.906A2.167,2.167,0,0,1,307.689,3259.03Z" fill="#fff"/><path d="M262.068,3286.918c.319.014.24.334.377.488a3.235,3.235,0,0,1-.605,1.045c-.083-.232-.047-.543-.4-.6C261.544,3287.468,261.881,3287.243,262.068,3286.918Z" fill="#fff"/><path d="M351.884,3274.344a.9.9,0,0,1-.009.233c-.062.193-.033.5-.268.523-.206.023-.254-.266-.327-.437-.16-.369-.557-.719-.142-1.161C351.533,3273.654,351.4,3274.275,351.884,3274.344Z" fill="#fff"/><path d="M262.5,3284.553c.415-.027.29.528.629.583-.134.348.189.743-.11,1.074-.364-.161-.372-.577-.6-.836Z" fill="#fff"/><path d="M261.488,3280.4l0,.553a6.793,6.793,0,0,1-1.3.038l-.011-.443A2.312,2.312,0,0,1,261.488,3280.4Z" fill="#fff"/><path d="M303.193,3312.806a1.428,1.428,0,0,1,.228,1.909c-.224-.181-.12-.527-.353-.7l-.019-.436C303.283,3313.353,303.156,3313.064,303.193,3312.806Z" fill="#fff"/><path d="M299.128,3256.577c.125.349-.288.567-.22.9l-.836-.017.245-.949Z" fill="#fff"/><path d="M245.582,3293.983a.8.8,0,0,0,.115.555l-1.182.418c.007-.25.005-.5-.24-.654C244.808,3294.595,245.107,3293.926,245.582,3293.983Z" fill="#fff"/><path d="M297.253,3257.741a.207.207,0,0,0,.1-.027l.843.168-.007.659a2.809,2.809,0,0,1-1.179-.181Z" fill="#fff"/><path d="M250.334,3269.618a.966.966,0,0,0,.116.586l-1.194.439-.112-.558Z" fill="#fff"/><path d="M281.813,3285.144c-.251-.147-.247-.553-.6-.591a2.134,2.134,0,0,1,.075-.4c.08-.206-.05-.581.228-.6s.327.384.346.584C281.891,3284.467,282.26,3284.84,281.813,3285.144Z" fill="#fff"/><path d="M351.884,3274.344c-.487-.069-.351-.69-.746-.842.072-.281.143-.563.215-.845.359.119.3.6.646.735Z" fill="#fff"/><path d="M303.068,3314.011c.233.177.129.523.353.7a3.11,3.11,0,0,1-.837,1.063,2.276,2.276,0,0,0,0-1Z" fill="#fff"/><path d="M254.609,3270.434c.064-.518-.331-.864-.484-1.3a2.13,2.13,0,0,1,.276.077c.289.124.73.087.808.451C255.3,3270.069,254.872,3270.22,254.609,3270.434Z" fill="#fff"/><path d="M244.275,3294.3c.245.157.247.4.24.654a2.744,2.744,0,0,1-1.075.151v-.679Z" fill="#fff"/><path d="M317.075,3288.233c.142.077.169.231.24.356-.027.208.116.353.182.528.107.284.133.583-.288.659-.255-.242-.115-.77-.609-.839C316.572,3288.577,316.936,3288.481,317.075,3288.233Z" fill="#fff"/><path d="M287.393,3256.025c-.22-.326-.078-.7-.131-1.042.293.061.543.263.856.256.458.369-.211.5-.163.788l-.194.051Z" fill="#fff"/><path d="M268.761,3298.535l-.749,1.569-.341.362-.139-.143c.183-.8.838-1.318,1.19-2.017Z" fill="#fff"/><path d="M305.2,3269.479c-.1.557.462.89.479,1.408l-.6-.006c0-.447-.315-.77-.465-1.157A.55.55,0,0,1,305.2,3269.479Z" fill="#fff"/><path d="M293.21,3313.469c-.055.172-.218.225-.356.274-.179.064-.419.341-.539.108a.557.557,0,0,1,.223-.8l.52-.257C293.109,3313.016,293.159,3313.243,293.21,3313.469Z" fill="#fff"/><path d="M288.326,3314.453c.1.357.238.711-.078,1.044-.1.109-.031.226.026.365.161.388.074.694-.412.755a2.863,2.863,0,0,0,0-1.658A.956.956,0,0,1,288.326,3314.453Z" fill="#fff"/><path d="M344.381,3283.474c-.313-.048-.192-.3-.232-.482.268-.278.667-.031.952-.24a1.747,1.747,0,0,0,.255.966c-.28.2-.373-.056-.472-.215C344.717,3283.236,344.557,3283.33,344.381,3283.474Z" fill="#fff"/><path d="M285.343,3285.734c-.319-.018-.262-.525-.628-.483q.135-.531.271-1.061c.291,0,.344.418.66.375l-.057.227-.1.129Z" fill="#fff"/><path d="M250.355,3289.9a2.217,2.217,0,0,1,.548-.972c.292.216.1.679.446.869a2.716,2.716,0,0,1-.537.714C250.8,3290.2,250.7,3289.957,250.355,3289.9Z" fill="#fff"/><path d="M294.372,3313.968l.14.641a3.727,3.727,0,0,1-1.07.5l.111-.763A2.266,2.266,0,0,1,294.372,3313.968Z" fill="#fff"/><path d="M343.563,3280.509c-.036.2.086.369.134.552-.384.068-.659.413-1.068.419-.183-.125-.122-.315-.13-.486A2.357,2.357,0,0,1,343.563,3280.509Z" fill="#fff"/><path d="M288.8,3318.44l.011.665-1.07,0-.006-.668Z" fill="#fff"/><path d="M243.441,3294.428v.679a2.594,2.594,0,0,1-1.2-.251l.007-.441Z" fill="#fff"/><path d="M341.071,3283.842a1.5,1.5,0,0,0-.6-1.075c.419-.472.5-.464.745.084.088.2.172.4.246.6C341.613,3283.861,341.426,3283.939,341.071,3283.842Z" fill="#fff"/><path d="M321.005,3298.324c-.172-.419-.525-.754-.557-1.239-.012-.192.024-.381.218-.388.149-.005.214.163.228.346.026.361.392.616.352,1.009A.41.41,0,0,1,321.005,3298.324Z" fill="#fff"/><path d="M302.581,3314.779a2.276,2.276,0,0,1,0,1l-.6.7c-.08-.265.22-.631-.21-.8A4.137,4.137,0,0,1,302.581,3314.779Z" fill="#fff"/><path d="M277.737,3277.637c.285.076.317.476.64.5-.02.339-.3.6-.279.954l-.446-.123A2,2,0,0,1,277.737,3277.637Z" fill="#fff"/><path d="M300.613,3298.426l.18.014c-.072.477-.586.755-.57,1.27l-.013.271a.754.754,0,0,0-.477.361l-.139-.143a.612.612,0,0,1,.2-.582A5.75,5.75,0,0,0,300.613,3298.426Z" fill="#fff"/><path d="M342.852,3283l.117.613a.5.5,0,0,1-.441.082c-.2-.024-.49.127-.564-.135s.221-.428.358-.628C342.5,3282.677,342.687,3282.873,342.852,3283Z" fill="#fff"/><path d="M283.7,3253.9c-.079.339-.179.675-.229,1.018-.032.221-.122.312-.334.3l-.152-.145a1.366,1.366,0,0,0,.359-1.168l-.018-.331a1.182,1.182,0,0,1,.154-.652.551.551,0,0,1,.365.249C283.6,3253.379,283.738,3253.659,283.7,3253.9Z" fill="#fff"/><path d="M298.063,3309.715l.074-.662a2.6,2.6,0,0,1,1.005-.03l-.006.566C298.768,3309.547,298.436,3309.8,298.063,3309.715Z" fill="#fff"/><path d="M250.355,3289.9c.347.058.45.3.457.611a1.742,1.742,0,0,1-.581.721c-.116-.172-.152-.4-.369-.5Z" fill="#fff"/><path d="M344.594,3289.035c-.209-.025-.224-.211-.147-.34a9.732,9.732,0,0,1,.669-.96c.088-.114.24-.17.325.019C345.534,3287.961,344.839,3289.029,344.594,3289.035Z" fill="#fff"/><path d="M291.311,3312.7c-.247-.334-.066-.719-.128-1.074.068-.147.294-.149.31-.343a.29.29,0,0,0,.27-.143l.125.008C292.04,3311.791,291.581,3312.209,291.311,3312.7Z" fill="#fff"/><path d="M291.888,3311.146l-.125-.008a5.574,5.574,0,0,0-.1-1.412.668.668,0,0,1,.367-.465,4.827,4.827,0,0,1,.087,1.677C292.038,3311.007,291.963,3311.076,291.888,3311.146Z" fill="#fff"/><path d="M339.866,3283.7a.391.391,0,0,1,.389.389c-.219.235-.169.611-.429.825-.253-.007-.266-.359-.521-.363A1.666,1.666,0,0,1,339.866,3283.7Z" fill="#fff"/><path d="M345.1,3301.452l.019.18a1.854,1.854,0,0,1-1.377-.66c-.2-.248-.205-.451.147-.652C344.013,3301.009,344.544,3301.245,345.1,3301.452Z" fill="#fff"/><path d="M293.806,3310.292a1.449,1.449,0,0,1,.921-.23c.077.042.3.134.014.132-.574,0-.777.252-.711.788l-.7.208-.018-.761.012,0a.242.242,0,0,0,.276-.123.957.957,0,0,1,.1-.016l.052.011Z" fill="#fff"/><path d="M295.6,3314.138c-.3-.228-.037-.472-.02-.709.281-.069.507-.291.813-.294l.028.7Z" fill="#fff"/><path d="M292.373,3309.781l.012-.005a.568.568,0,0,0,.15-.433c-.039-.5.251-.649.68-.661l-.011.683c-.048.126-.3.094-.235.309l.006.014-.425.151Z" fill="#fff"/><path d="M277.652,3278.972l.446.123a2.91,2.91,0,0,1-.3,1.228c-.173-.2-.221-.541-.589-.518C277.1,3279.39,277.671,3279.34,277.652,3278.972Z" fill="#fff"/><path d="M284.047,3289.883c-.221.259-.473.771-.745.6s.085-.626.183-.953c.033-.113.079-.221.119-.331C283.9,3289.331,283.935,3289.632,284.047,3289.883Z" fill="#fff"/><path d="M260.176,3280.552l.011.443c-.548.032-.848.516-1.305.714,0-.15,0-.3-.158-.391A4.642,4.642,0,0,1,260.176,3280.552Z" fill="#fff"/><path d="M291.193,3314.61c-.015-.228.034-.468-.236-.613-.125-.067-.026-.16.057-.217.1-.019.19-.042.286-.055.188-.026.422-.292.551-.026a.541.541,0,0,1-.232.719A4.336,4.336,0,0,1,291.193,3314.61Z" fill="#fff"/><path d="M293.21,3313.469c-.051-.226-.1-.453-.152-.679a2.14,2.14,0,0,1,.731-.466c-.009.285.1.48.4.52A3.469,3.469,0,0,1,293.21,3313.469Z" fill="#fff"/><path d="M290.828,3315.54l-.127.7a2.265,2.265,0,0,1-.834.329l.009-.693A2.671,2.671,0,0,1,290.828,3315.54Z" fill="#fff"/><path d="M251.349,3289.8c-.343-.19-.154-.653-.446-.869.014-.308.313-.326.484-.473l.384.734C251.607,3289.375,251.59,3289.663,251.349,3289.8Z" fill="#fff"/><path d="M292.251,3283.7a.974.974,0,0,0,0-.8c.286-.088.534.258.828.073a.685.685,0,0,0,.259.4C293.1,3283.889,292.653,3283.717,292.251,3283.7Z" fill="#fff"/><path d="M244.28,3274.348a.378.378,0,0,0-.377-.376,3.345,3.345,0,0,1,.96-1.066l.136.372Z" fill="#fff"/><path d="M284.555,3286.8l.456.127q-.066.588-.131,1.176c-.54-.1-.514-.549-.584-.94Z" fill="#fff"/><path d="M297.245,3318.532l0,.574-.95,0,.005-.66A1.722,1.722,0,0,1,297.245,3318.532Z" fill="#fff"/><path d="M296.3,3318.442l-.005.66-.951.006a1.11,1.11,0,0,1,.133-.673Z" fill="#fff"/><path d="M293.339,3283.368a.685.685,0,0,1-.259-.4c.251-.221.555-.056.829-.113.143.28.409.508.363.866-.211.125-.354.057-.472-.145C293.7,3283.408,293.579,3283.247,293.339,3283.368Z" fill="#fff"/><path d="M328.131,3280.525c0,.266,0,.531.006.8-.335.017-.67.032-.856-.333-.029-.116-.058-.233-.088-.349C327.509,3280.623,327.8,3280.426,328.131,3280.525Z" fill="#fff"/><path d="M293.553,3314.348l-.111.763a1.224,1.224,0,0,1-.718.333l.005-.729A2.492,2.492,0,0,1,293.553,3314.348Z" fill="#fff"/><path d="M247.225,3271.714a.667.667,0,0,1-.347-.35,6.149,6.149,0,0,1,1.194-.7l.006.523Z" fill="#fff"/><path d="M327.179,3289.065a.414.414,0,0,1,.233.466l-.358.149c-.277.109-.482.389-.823.346l-.127-.377Z" fill="#fff"/><path d="M251.771,3289.188l-.384-.734a2.864,2.864,0,0,0,.086-.283c.033-.166-.179-.449.141-.469.215-.013.278.279.313.45C252,3288.5,252.142,3288.893,251.771,3289.188Z" fill="#fff"/><path d="M291.66,3309.726a5.574,5.574,0,0,1,.1,1.412.29.29,0,0,1-.27.143c-.273-.052-.109-.377-.3-.481A2.656,2.656,0,0,1,291.66,3309.726Z" fill="#fff"/><path d="M337.174,3282.655l.53-.978a.462.462,0,0,1,.412.281l-.481.943A.627.627,0,0,0,337.174,3282.655Z" fill="#fff"/><path d="M342.5,3280.994c.008.171-.053.361.13.486l-1.213.762C341.532,3281.595,342.084,3281.357,342.5,3280.994Z" fill="#fff"/><path d="M288.337,3274.819c.017-.19-.173-.244-.245-.375a4.072,4.072,0,0,1,.277-.437c.1-.12.186-.362.394-.2a.4.4,0,0,1,.06.533A1.114,1.114,0,0,1,288.337,3274.819Z" fill="#fff"/><path d="M268.024,3290.372c.047-.348-.264-.6-.252-.941.239.184.681-.032.786.451C268.658,3290.343,268.541,3290.479,268.024,3290.372Z" fill="#fff"/><path d="M313.633,3297.98l-.062-.14c.811-.062,1.628.03,2.443-.037A6.832,6.832,0,0,1,313.633,3297.98Z" fill="#fff"/><path d="M344.712,3297.362a3.217,3.217,0,0,1,2.06-.794c0,.035,0,.07,0,.1a11.115,11.115,0,0,0-1.874.716Z" fill="#fff"/><path d="M248.078,3271.189l-.006-.523a2.548,2.548,0,0,1,1.072-.581l.112.558c-.309.156-.81-.193-.964.367l-.105.115Z" fill="#fff"/><path d="M275.148,3296.892l.005-.214a3.656,3.656,0,0,1,1.934-.029C276.471,3296.931,275.758,3296.584,275.148,3296.892Z" fill="#fff"/><path d="M272.284,3286.186l.374.508a3.871,3.871,0,0,1-.585.875l-.163-.568A2.474,2.474,0,0,1,272.284,3286.186Z" fill="#fff"/><path d="M342.731,3290.128c-.317.072-.6.329-.957.183v-.476a1.472,1.472,0,0,1,.839-.184Z" fill="#fff"/><path d="M344.712,3297.362l.188.027a.525.525,0,0,0,.091.811l0,.459C344.259,3298.372,344.167,3297.948,344.712,3297.362Z" fill="#fff"/><path d="M338.116,3281.958a.462.462,0,0,0-.412-.281,1,1,0,0,1,.525-.8c.089-.05.24.007.248.095A1.154,1.154,0,0,1,338.116,3281.958Z" fill="#fff"/><path d="M299.594,3300.2l.139.143c-.176.347-.338.7-.533,1.038-.084.144-.239.333-.425.194-.2-.151.05-.261.117-.366C299.112,3300.863,299.358,3300.534,299.594,3300.2Z" fill="#fff"/><path d="M296.291,3310.322l-.369,0c-.027-.153-.053-.307-.08-.461a.235.235,0,0,0,.215-.232,1.443,1.443,0,0,1,.594-.241c-.046.272.081.565-.1.82-.1,0-.207-.007-.255.114Z" fill="#fff"/><path d="M334.315,3288.9l-.164-.352c.281-.365.37-.85.731-1.164l.227.129Z" fill="#fff"/><path d="M267.532,3300.323l.139.143a2.993,2.993,0,0,1-.542,1.016c-.076.1-.209.213-.347.079s.031-.2.088-.284C267.088,3300.957,267.311,3300.64,267.532,3300.323Z" fill="#fff"/><path d="M283.7,3253.9c.036-.244-.1-.524.145-.726l.465.311q-.014.4-.028.792C284,3254.294,283.929,3253.979,283.7,3253.9Z" fill="#fff"/><path d="M303.193,3312.806c-.037.258.09.547-.144.769-.192-.217-.5-.224-.721-.382.278-.123.273-.364.257-.611A.835.835,0,0,1,303.193,3312.806Z" fill="#fff"/><path d="M282.987,3255.079l.152.145a.151.151,0,0,0-.031.1,1.47,1.47,0,0,1-.965-.084c.013-.815.013-.815.583-.613l-.01.206c-.121.048-.226.131-.17.264s.147.079.208-.021Z" fill="#fff"/><path d="M296.424,3313.839l-.028-.7a1.714,1.714,0,0,1,.712-.235l.024.7Z" fill="#fff"/><path d="M328.029,3300.446l.219.021a3.354,3.354,0,0,1-.508.983c-.061.109-.2.234-.345.138-.2-.132,0-.226.066-.324C327.647,3300.989,327.839,3300.718,328.029,3300.446Z" fill="#fff"/><path d="M262.552,3300.452l.253.514c-.1.436-.542.448-.836.66C262.2,3301.247,262.183,3300.753,262.552,3300.452Z" fill="#fff"/><path d="M295.577,3255.349l0,.7a.694.694,0,0,1-.72.033l.031-.68A1.315,1.315,0,0,0,295.577,3255.349Z" fill="#fff"/><path d="M269.814,3280.952c-.053.226.092.417.11.631l-.586.07a1.571,1.571,0,0,1-.131-.794C269.437,3280.708,269.6,3281.018,269.814,3280.952Z" fill="#fff"/><path d="M332.843,3289.178c.289.234.343.647.655.864a1.124,1.124,0,0,1-.6.458C332.954,3290.029,332.71,3289.621,332.843,3289.178Z" fill="#fff"/><path d="M310.063,3273.022q-.165-.171-.329-.344a1.137,1.137,0,0,1,.675-.612.233.233,0,0,0,.244.126A1.638,1.638,0,0,1,310.063,3273.022Z" fill="#fff"/><path d="M327.522,3284.751l.156.688c-.329.17-.568-.124-.856-.166l-.013-.463Z" fill="#fff"/><path d="M321.005,3298.324a.41.41,0,0,0,.241-.272,6.693,6.693,0,0,1,.58,1.225l-.368.122Z" fill="#fff"/><path d="M292.729,3314.715l-.005.729c-.16.131-.373.335-.525.108a.473.473,0,0,1,.158-.7A2.292,2.292,0,0,1,292.729,3314.715Z" fill="#fff"/><path d="M343.328,3289.432c.011-.015.02-.037.036-.045.212-.108.388-.348.664-.231a.215.215,0,0,1,.088.3c-.15.254-.323.492-.679.421Z" fill="#fff"/><path d="M287.955,3256.027c-.048-.284.621-.419.163-.788l.695-.126-.123.692Z" fill="#fff"/><path d="M334.661,3301.424l-.006.2a1.676,1.676,0,0,1-1.147.117c-.137-.044-.349-.115-.255-.318.117-.253.261-.042.354.042C333.978,3301.8,334.31,3301.394,334.661,3301.424Z" fill="#fff"/><path d="M341.774,3289.835v.476c-.242-.113-.468.073-.706.039.041-.356-.295-.548-.371-.853C341.117,3289.415,341.3,3290.081,341.774,3289.835Z" fill="#fff"/><path d="M258.4,3290.473a.714.714,0,0,1-.116-.456,2.7,2.7,0,0,0,.954-.114v.458A2.4,2.4,0,0,1,258.4,3290.473Z" fill="#fff"/><path d="M324.08,3286.554l-.116-.353c.3-.327.747-.415,1.072-.7l.009.372Z" fill="#fff"/><path d="M343.328,3289.432l.109.448a1.173,1.173,0,0,1-.706.248l-.118-.477A.981.981,0,0,1,343.328,3289.432Z" fill="#fff"/><path d="M271.47,3287.884c-.164.423-.271.9-.951.926a3.565,3.565,0,0,1,.952-1.046Z" fill="#fff"/><path d="M284.536,3259.14q-.126.72-.254,1.441a.583.583,0,0,1-.452-.5c.279-.037.275-.283.365-.47S284.228,3259.157,284.536,3259.14Z" fill="#fff"/><path d="M326.809,3284.81l.013.463a2.107,2.107,0,0,1-1.041.162l-.038-.272C326.058,3284.923,326.473,3284.986,326.809,3284.81Z" fill="#fff"/><path d="M325.807,3281.837c-.232-.089-.188-.341-.3-.5a1.463,1.463,0,0,1,.711-.337l.023.477A.711.711,0,0,1,325.807,3281.837Z" fill="#fff"/><path d="M316.6,3288.937c.494.069.354.6.609.839-.018.218-.169.251-.345.251-.032-.239-.058-.482-.383-.492Z" fill="#fff"/><path d="M283.482,3252.928a1.182,1.182,0,0,0-.154.652l-.479-.175c.084-.264-.051-.567.147-.811Z" fill="#fff"/><path d="M311.973,3271c.075-.2-.239-.412.024-.6h.438l.245.607A.659.659,0,0,1,311.973,3271Z" fill="#fff"/><path d="M293.2,3309.365l.011-.683c.19-.019.373-.124.57-.045l.018.719Z" fill="#fff"/><path d="M293.446,3289.311a1.107,1.107,0,0,0-.133-.635l.483-.569a.27.27,0,0,0,.352.047Z" fill="#fff"/><path d="M294.193,3312.844c-.306-.04-.413-.235-.4-.52a.557.557,0,0,1,.354-.225c.352-.008.167.416.4.5Z" fill="#fff"/><path d="M316.481,3289.535c.325.01.351.253.383.492l-.694.495C316.106,3290.079,316.377,3289.834,316.481,3289.535Z" fill="#fff"/><path d="M285.666,3297.472c.112-.091,0-.307.194-.352.191.2.487.3.577.6l-.144.283Z" fill="#fff"/><path d="M340.248,3297l0-.2,1.338-.115C341.186,3297.257,340.655,3296.843,340.248,3297Z" fill="#fff"/><path d="M284.047,3289.883c-.112-.251-.145-.552-.443-.682.074-.148.037-.411.222-.427.235-.021.305.249.315.417C284.154,3289.417,284.473,3289.713,284.047,3289.883Z" fill="#fff"/><path d="M269.161,3289.96l1.183-1.065A1.441,1.441,0,0,1,269.161,3289.96Z" fill="#fff"/><path d="M297.834,3311.852a1.559,1.559,0,0,0-.126-.68l.713-.006-.089.627A.845.845,0,0,1,297.834,3311.852Z" fill="#fff"/><path d="M315.187,3297l-.005-.2,1.259-.12C316.1,3297.282,315.57,3296.83,315.187,3297Z" fill="#fff"/><path d="M302.585,3312.582c.016.247.021.488-.257.611-.154-.036-.331.007-.454-.135l.122-.484.371-.011Z" fill="#fff"/><path d="M307.812,3270.891l-.132-.7c.551-.125.57.333.564.626C308.239,3271.15,307.974,3270.936,307.812,3270.891Z" fill="#fff"/><path d="M281.454,3297l0-.2,1.335-.119C282.4,3297.259,281.861,3296.845,281.454,3297Z" fill="#fff"/><path d="M308.9,3270.2c-.007.258.285.414.234.687-.335.06-.6-.042-.663-.394C308.411,3270.159,308.679,3270.187,308.9,3270.2Z" fill="#fff"/><path d="M296.439,3260.884l-.031.767c-.17-.011-.352.036-.5-.1a2.9,2.9,0,0,0,.15-.909Z" fill="#fff"/><path d="M272.987,3320.062c-.006.143-.063.249-.2.243a.362.362,0,0,1-.382-.292.178.178,0,0,1,.192-.231A.418.418,0,0,1,272.987,3320.062Z" fill="#fff"/><path d="M271.277,3251.984c-.022.2-.188.282-.355.315a.183.183,0,0,1-.217-.209.366.366,0,0,1,.352-.324C271.191,3251.749,271.266,3251.839,271.277,3251.984Z" fill="#fff"/><path d="M300.089,3260.8a.08.08,0,0,0,0-.11l.35.144,0,.883a.424.424,0,0,1-.355-.07Z" fill="#fff"/><path d="M305.019,3245.207a.192.192,0,0,1-.213.213c-.171-.014-.386-.023-.409-.248a.22.22,0,0,1,.281-.223C304.821,3244.973,305.015,3244.971,305.019,3245.207Z" fill="#fff"/><path d="M293.9,3326.777a.266.266,0,0,1-.33.236c-.161-.022-.313-.1-.309-.283s.166-.243.332-.235A.29.29,0,0,1,293.9,3326.777Z" fill="#fff"/><path d="M285.953,3254.4l.479.225c-.028.229-.17.446-.075.688l-.518-.228A1.688,1.688,0,0,0,285.953,3254.4Z" fill="#fff"/><path d="M318.833,3251.182c.139.066.327.123.32.334a.2.2,0,0,1-.277.2c-.173-.055-.332-.15-.312-.36C318.576,3251.234,318.672,3251.154,318.833,3251.182Z" fill="#fff"/><path d="M319.034,3319.5a.41.41,0,0,1-.369.316.193.193,0,0,1-.226-.207.379.379,0,0,1,.392-.352C318.96,3319.246,319.024,3319.364,319.034,3319.5Z" fill="#fff"/><path d="M287.06,3245.155c-.16.021-.275-.033-.271-.212.005-.22.2-.221.341-.241s.279.038.273.222C287.4,3245.149,287.215,3245.136,287.06,3245.155Z" fill="#fff"/><path d="M337.174,3282.655a.627.627,0,0,1,.461.246l-.276.458-.313-.108C337.024,3283.038,336.989,3282.823,337.174,3282.655Z" fill="#fff"/><path d="M269.289,3253.092c.158.023.257.109.242.234a.39.39,0,0,1-.356.34.19.19,0,0,1-.218-.22C268.974,3253.239,269.148,3253.17,269.289,3253.092Z" fill="#fff"/><path d="M300.44,3261.713l0-.883.219-.048a.316.316,0,0,1,.1.452c-.1.2.069.266.158.374A.685.685,0,0,1,300.44,3261.713Z" fill="#fff"/><path d="M315.392,3249.183c-.024.141-.105.222-.239.207-.183-.022-.351-.1-.376-.3a.2.2,0,0,1,.258-.229A.4.4,0,0,1,315.392,3249.183Z" fill="#fff"/><path d="M287.861,3316.618l0,.574-.479.123C287.179,3316.833,287.487,3316.7,287.861,3316.618Z" fill="#fff"/><path d="M269.042,3317.14c.181.051.338.131.347.337a.181.181,0,0,1-.215.206.344.344,0,0,1-.34-.325C268.823,3317.211,268.923,3317.161,269.042,3317.14Z" fill="#fff"/><path d="M320.944,3252.8c-.009.127-.051.258-.19.253a.386.386,0,0,1-.4-.349.191.191,0,0,1,.212-.222A.432.432,0,0,1,320.944,3252.8Z" fill="#fff"/><path d="M302.729,3326.188c-.015.227-.211.206-.348.225s-.281-.053-.267-.229c.018-.213.2-.2.356-.221S302.738,3326,302.729,3326.188Z" fill="#fff"/><path d="M271.47,3287.884v-.12l.439-.763.163.568C271.983,3287.886,271.751,3287.933,271.47,3287.884Z" fill="#fff"/><path d="M291.193,3310.8c.191.1.027.429.3.481-.016.194-.242.2-.31.343l-.364.255A3.282,3.282,0,0,1,291.193,3310.8Z" fill="#fff"/><path d="M317.182,3320.706a.424.424,0,0,1-.4.3.179.179,0,0,1-.2-.229.351.351,0,0,1,.383-.29C317.1,3320.479,317.172,3320.577,317.182,3320.706Z" fill="#fff"/><path d="M274.646,3321.482c-.169-.046-.34-.107-.362-.316a.186.186,0,0,1,.218-.213.37.37,0,0,1,.373.309C274.891,3321.4,274.785,3321.465,274.646,3321.482Z" fill="#fff"/><path d="M307.08,3325.147c-.031.213-.181.254-.342.275s-.291-.026-.287-.2c0-.2.168-.248.329-.272A.253.253,0,0,1,307.08,3325.147Z" fill="#fff"/><path d="M302.851,3244.745c-.005.17-.1.261-.262.236-.151-.022-.334-.037-.354-.242-.018-.182.106-.235.266-.227S302.826,3244.529,302.851,3244.745Z" fill="#fff"/><path d="M307.187,3245.775a.246.246,0,0,1-.3.2c-.169-.021-.324-.075-.32-.271a.209.209,0,0,1,.285-.205C307,3245.539,307.157,3245.582,307.187,3245.775Z" fill="#fff"/><path d="M309.183,3324.464c-.024.216-.186.288-.361.313a.219.219,0,0,1-.267-.233c.005-.192.181-.23.329-.27A.225.225,0,0,1,309.183,3324.464Z" fill="#fff"/><path d="M323.932,3255.381a.421.421,0,0,1,.357.335.186.186,0,0,1-.2.233.355.355,0,0,1-.363-.321C323.7,3255.483,323.788,3255.411,323.932,3255.381Z" fill="#fff"/><path d="M285.247,3245.389c-.008.228-.187.243-.331.277a.2.2,0,0,1-.28-.206c0-.219.177-.226.327-.256S285.226,3245.229,285.247,3245.389Z" fill="#fff"/><path d="M271.152,3318.8c-.008.139-.061.244-.21.238a.358.358,0,0,1-.354-.265.184.184,0,0,1,.166-.256A.39.39,0,0,1,271.152,3318.8Z" fill="#fff"/><path d="M325.743,3313.73a.426.426,0,0,1-.359.323.2.2,0,0,1-.213-.268.377.377,0,0,1,.372-.31C325.67,3313.48,325.741,3313.584,325.743,3313.73Z" fill="#fff"/><path d="M325.847,3257.325c-.02.138-.1.233-.229.208a.363.363,0,0,1-.337-.393.188.188,0,0,1,.248-.173A.4.4,0,0,1,325.847,3257.325Z" fill="#fff"/><path d="M267.722,3316.016c-.017.136-.072.242-.214.229a.383.383,0,0,1-.358-.323.2.2,0,0,1,.233-.247A.418.418,0,0,1,267.722,3316.016Z" fill="#fff"/><path d="M300.675,3244.436c-.041.208-.183.232-.353.214-.147-.015-.279-.064-.282-.23-.005-.208.145-.247.318-.242S300.655,3244.251,300.675,3244.436Z" fill="#fff"/><path d="M315.265,3321.817a.373.373,0,0,1-.4.274c-.136,0-.24-.071-.22-.212.029-.214.2-.277.391-.282A.2.2,0,0,1,315.265,3321.817Z" fill="#fff"/><path d="M267.274,3254.893a.379.379,0,0,1,.341-.331.187.187,0,0,1,.222.207.376.376,0,0,1-.341.337C267.366,3255.127,267.279,3255.047,267.274,3254.893Z" fill="#fff"/><path d="M289.281,3244.779c-.151.022-.3-.028-.315-.177-.017-.22.174-.277.354-.292a.233.233,0,0,1,.281.222C289.606,3244.732,289.446,3244.77,289.281,3244.779Z" fill="#fff"/><path d="M304.589,3325.99a.232.232,0,0,1-.3-.191c-.022-.188.127-.26.295-.279s.334,0,.332.206C304.912,3325.908,304.75,3325.967,304.589,3325.99Z" fill="#fff"/><path d="M320.577,3317.933a.222.222,0,0,1,.24.211c0,.235-.174.342-.377.371-.141.02-.213-.1-.21-.227C320.235,3318.072,320.424,3318.016,320.577,3317.933Z" fill="#fff"/><path d="M287.045,3326.186c-.171-.046-.357-.035-.372-.246-.013-.182.112-.235.266-.217s.332.006.346.225C287.3,3326.132,287.162,3326.163,287.045,3326.186Z" fill="#fff"/><path d="M300.193,3326.721c-.152,0-.275-.049-.258-.225.02-.2.2-.222.349-.231s.274.079.26.241C300.527,3326.71,300.357,3326.722,300.193,3326.721Z" fill="#fff"/><path d="M289.222,3326.584c-.219-.027-.38-.088-.375-.272.005-.205.183-.216.344-.2s.319.089.289.279A.225.225,0,0,1,289.222,3326.584Z" fill="#fff"/><path d="M285.953,3254.4a1.688,1.688,0,0,1-.114.685.919.919,0,0,1-.484-.222c.282-.12.25-.369.25-.6A.5.5,0,0,1,285.953,3254.4Z" fill="#fff"/><path d="M322.289,3253.9a.413.413,0,0,1,.361.315c.037.137-.071.225-.2.222a.368.368,0,0,1-.374-.3C322.046,3253.991,322.142,3253.923,322.289,3253.9Z" fill="#fff"/><path d="M273.124,3250.705c-.012.207-.178.28-.339.332a.187.187,0,0,1-.256-.161c-.026-.249.173-.327.356-.374C273.012,3250.469,273.091,3250.572,273.124,3250.705Z" fill="#fff"/><path d="M327.079,3259.217a.417.417,0,0,1-.337-.344c-.025-.143.071-.217.207-.215a.322.322,0,0,1,.338.327A.191.191,0,0,1,327.079,3259.217Z" fill="#fff"/><path d="M317.044,3250.5c-.173-.044-.335-.111-.33-.33a.181.181,0,0,1,.237-.182c.174.035.343.1.341.324C317.291,3250.457,317.176,3250.492,317.044,3250.5Z" fill="#fff"/><path d="M282.75,3246.291c-.146-.011-.245-.068-.236-.21.014-.229.192-.262.372-.269.13-.005.225.055.219.2C283.094,3246.252,282.9,3246.249,282.75,3246.291Z" fill="#fff"/><path d="M274.665,3249.87c-.171,0-.249-.069-.237-.207.017-.209.175-.288.354-.3a.186.186,0,0,1,.217.207C274.977,3249.773,274.811,3249.833,274.665,3249.87Z" fill="#fff"/><path d="M309.294,3246.4c0,.155-.07.244-.205.258a.341.341,0,0,1-.414-.239c-.035-.137.06-.223.194-.234A.382.382,0,0,1,309.294,3246.4Z" fill="#fff"/><path d="M311.351,3247.208c-.018.16-.1.263-.258.258a.292.292,0,0,1-.311-.277c-.012-.124.031-.25.175-.244A.375.375,0,0,1,311.351,3247.208Z" fill="#fff"/><path d="M296.061,3260.644a2.9,2.9,0,0,1-.15.909.6.6,0,0,1-.359-.249c.2-.227.182-.568.417-.773Z" fill="#fff"/><path d="M285.126,3325.416c.013.177-.066.251-.2.249-.173,0-.368,0-.4-.234a.2.2,0,0,1,.2-.233C284.89,3325.206,285.083,3325.223,285.126,3325.416Z" fill="#fff"/><path d="M276.815,3322.312c-.007.146-.078.237-.218.227-.185-.014-.355-.079-.369-.3a.2.2,0,0,1,.218-.224A.34.34,0,0,1,276.815,3322.312Z" fill="#fff"/><path d="M280.571,3323.854c.161.023.323.064.327.259,0,.167-.123.228-.277.213s-.312-.081-.327-.266S280.427,3323.855,280.571,3323.854Z" fill="#fff"/><path d="M313.272,3322.814c-.031.21-.2.268-.374.295-.147.023-.208-.089-.2-.221.017-.219.192-.281.366-.3C313.208,3322.565,313.269,3322.671,313.272,3322.814Z" fill="#fff"/><path d="M324.176,3315.277a.408.408,0,0,1-.335.344.185.185,0,0,1-.226-.2.343.343,0,0,1,.322-.346C324.069,3315.051,324.154,3315.131,324.176,3315.277Z" fill="#fff"/><path d="M293.682,3244.389c-.156-.007-.3-.046-.3-.218,0-.2.163-.241.332-.239.144,0,.3.016.29.2S293.841,3244.38,293.682,3244.389Z" fill="#fff"/><path d="M262.986,3259.954c-.162-.022-.267-.092-.245-.228a.355.355,0,0,1,.355-.325c.151,0,.185.131.166.254A.314.314,0,0,1,262.986,3259.954Z" fill="#fff"/><path d="M266,3256.071c.161.046.261.124.229.258a.358.358,0,0,1-.378.3.181.181,0,0,1-.17-.205C265.7,3256.221,265.869,3256.151,266,3256.071Z" fill="#fff"/><path d="M291.382,3326.829c-.167-.014-.329-.051-.309-.264.016-.176.161-.2.308-.193s.279.058.281.234S291.533,3326.827,291.382,3326.829Z" fill="#fff"/><path d="M298.315,3326.7c-.014.167-.126.225-.278.229-.173.005-.324-.039-.306-.252.015-.179.167-.193.306-.2C298.194,3326.466,298.3,3326.522,298.315,3326.7Z" fill="#fff"/><path d="M245,3273.278l-.136-.372a.306.306,0,0,1,.369-.283c.038,0,.087.118.1.186A.372.372,0,0,1,245,3273.278Z" fill="#fff"/><path d="M322.216,3317.108c-.181-.017-.28-.08-.26-.224a.359.359,0,0,1,.362-.319.185.185,0,0,1,.217.213C322.513,3316.989,322.321,3317.027,322.216,3317.108Z" fill="#fff"/><path d="M325.743,3285.163l.038.272c-.281.086-.4.442-.736.44l-.009-.372Z" fill="#fff"/><path d="M291.476,3244.518c-.183-.009-.3-.073-.282-.245.025-.207.2-.212.357-.209.133,0,.228.069.227.209C291.777,3244.491,291.608,3244.5,291.476,3244.518Z" fill="#fff"/><path d="M329.6,3308.873c-.155-.025-.26-.095-.24-.233.027-.182.109-.348.338-.334a.179.179,0,0,1,.179.244C329.833,3308.7,329.768,3308.85,329.6,3308.873Z" fill="#fff"/><path d="M286.357,3255.316c-.1-.242.047-.459.075-.688l.354.144a1.838,1.838,0,0,0-.115.681A.439.439,0,0,1,286.357,3255.316Z" fill="#fff"/><path d="M346.774,3296.673c0-.035,0-.07,0-.1.233,0,.467-.016.7,0,.1.009.263.022.235.184-.024.139-.159.135-.281.145C347.17,3296.921,347.018,3296.668,346.774,3296.673Z" fill="#fff"/><path d="M298.434,3244.2c-.008.2-.138.224-.283.219s-.286-.02-.3-.2.092-.248.25-.248S298.406,3244.013,298.434,3244.2Z" fill="#fff"/><path d="M280.718,3246.546c.159-.012.269.041.261.221s-.126.228-.27.247-.29-.011-.3-.187S280.554,3246.573,280.718,3246.546Z" fill="#fff"/><path d="M264.7,3257.957c-.066.151-.126.331-.344.319a.2.2,0,0,1-.2-.234.369.369,0,0,1,.354-.327C264.652,3257.708,264.707,3257.809,264.7,3257.957Z" fill="#fff"/><path d="M282.671,3324.58c.152.037.313.079.311.284s-.153.2-.295.184-.28-.063-.287-.238S282.5,3324.569,282.671,3324.58Z" fill="#fff"/><path d="M261.468,3309.042a.412.412,0,0,1,.351.348c.027.148-.077.2-.212.208-.2.006-.267-.148-.31-.295C261.258,3309.172,261.351,3309.091,261.468,3309.042Z" fill="#fff"/><path d="M265.741,3314.134a.427.427,0,0,1,.365.341.184.184,0,0,1-.2.224.374.374,0,0,1-.328-.3C265.533,3314.274,265.621,3314.184,265.741,3314.134Z" fill="#fff"/><path d="M296.148,3326.794a.257.257,0,0,1-.272.248.249.249,0,0,1-.27-.255c-.006-.159.115-.188.24-.192C295.987,3326.591,296.132,3326.59,296.148,3326.794Z" fill="#fff"/><path d="M311.229,3323.734a.322.322,0,0,1-.346.237c-.137,0-.229-.069-.207-.213.028-.186.171-.247.34-.246A.187.187,0,0,1,311.229,3323.734Z" fill="#fff"/><path d="M326.243,3281.475l-.023-.477c.082-.149.227-.128.362-.135l.127.244C326.679,3281.388,326.5,3281.486,326.243,3281.475Z" fill="#fff"/><path d="M264.575,3312.792c.011.153-.018.247-.141.255a.362.362,0,0,1-.378-.305.168.168,0,0,1,.15-.214C264.418,3312.508,264.505,3312.67,264.575,3312.792Z" fill="#fff"/><path d="M319.228,3270.434l-.035-.357c.077-.286.327-.274.618-.358C319.654,3270.048,319.531,3270.309,319.228,3270.434Z" fill="#fff"/><path d="M276.7,3248.325c.15,0,.245.057.23.205-.02.187-.16.257-.322.272s-.278-.054-.241-.232S276.549,3248.342,276.7,3248.325Z" fill="#fff"/><path d="M263.156,3311.141c-.008.142-.058.246-.21.229-.188-.021-.259-.159-.263-.332,0-.132.054-.238.2-.22A.3.3,0,0,1,263.156,3311.141Z" fill="#fff"/><path d="M312.821,3248.07a.19.19,0,0,1,.235-.205c.169.015.311.086.323.276.01.15-.1.2-.232.191A.305.305,0,0,1,312.821,3248.07Z" fill="#fff"/><path d="M296.252,3244.171c-.1.173-.262.131-.408.1-.117-.021-.253-.1-.187-.23.1-.191.3-.111.467-.092C296.236,3243.966,296.276,3244.055,296.252,3244.171Z" fill="#fff"/><path d="M294.148,3288.154a.27.27,0,0,1-.352-.047.647.647,0,0,1,.071-.153c.1-.125.169-.406.356-.291C294.43,3287.79,294.256,3288,294.148,3288.154Z" fill="#fff"/><path d="M300.089,3260.8l0,.847a.383.383,0,0,1-.346-.146C299.784,3261.228,299.728,3260.908,300.089,3260.8Z" fill="#fff"/><path d="M247.264,3279.686c.459,0,.433.336.442.646C247.094,3280.434,247.466,3279.864,247.264,3279.686Z" fill="#fff"/><path d="M261.836,3261.514a.273.273,0,0,1-.248.212.151.151,0,0,1-.2-.158c.016-.176.068-.363.285-.385C261.788,3261.172,261.838,3261.274,261.836,3261.514Z" fill="#fff"/><path d="M310.35,3300.117a.406.406,0,0,1-.274.272c-.155-.084-.47-.112-.225-.382C310.009,3299.834,310.245,3299.8,310.35,3300.117Z" fill="#fff"/><path d="M326.709,3281.107l-.127-.244a1.092,1.092,0,0,1,.611-.224c.03.116.059.233.088.349Z" fill="#fff"/><path d="M307.368,3266.764l.921-.025v.216C307.982,3266.9,307.6,3267.186,307.368,3266.764Z" fill="#fff"/><path d="M310.19,3274.338c.054-.141-.116-.381.165-.415.1-.011.17.1.171.2,0,.244-.123.3-.338.209Z" fill="#fff"/><path d="M307.509,3299.065c-.034-.127-.291-.217-.062-.385C307.756,3298.762,307.757,3298.893,307.509,3299.065Z" fill="#fff"/><path d="M327.054,3289.68l.358-.149a.375.375,0,0,1-.08.373C327.185,3289.9,327.07,3289.85,327.054,3289.68Z" fill="#fff"/><path d="M308.177,3301.516v-.2l.413-.081.112.146Z" fill="#fff"/><path d="M296.057,3309.626a.235.235,0,0,1-.215.232.419.419,0,0,1-.02-.116Z" fill="#fff"/><path d="M252.519,3279c-.08.049-.17.1-.229-.014-.044-.086.045-.124.1-.169Z" fill="#fff"/><path d="M320.4,3266.955c.008-.067.016-.135.023-.2l.2-.053C320.665,3266.89,320.622,3267,320.4,3266.955Z" fill="#fff"/><path d="M335.109,3287.513l-.227-.129c.039-.1.082-.237.22-.18C335.291,3287.284,335.165,3287.407,335.109,3287.513Z" fill="#fff"/><path d="M320.619,3266.7l-.2.053-.035-.036c0-.1.006-.205.01-.307l.212.137Z" fill="#fff"/><path d="M243.855,3266.877a.371.371,0,0,1,.368-.129C244.183,3267.027,244.041,3267.016,243.855,3266.877Z" fill="#fff"/><path d="M292.776,3255.1c.1.111.022.112-.066.108Z" fill="#fff"/><path d="M248.187,3271.125l.105-.115C248.3,3271.087,248.265,3271.125,248.187,3271.125Z" fill="#fff"/><path d="M285.487,3284.921l.1-.129Z" fill="#fff"/><path d="M307.7,3301.32c-.117.016-.132-.05-.115-.143Z" fill="#fff"/><path d="M282.5,3283.351a.6.6,0,0,1-.038-.075l.042-.025A.558.558,0,0,1,282.5,3283.351Z" fill="#fff"/><path d="M345.928,3305.795l-5.094.015-2.977-.019,0-.321h8.074Z" fill="#fff"/><path d="M271.357,3305.787l-.005-.314,7.6,0,0,.324Z" fill="#fff"/><path d="M337.86,3305.47l0,.321-7.243,0,0-.327Z" fill="#fff"/><path d="M330.616,3305.468l0,.327-6.3,0,0-.319Z" fill="#fff"/><path d="M324.318,3305.472l0,.319h-6.289v-.316Z" fill="#fff"/><path d="M278.955,3305.793l0-.324,6.179,0,0,.318Z" fill="#fff"/><path d="M300.809,3305.474l5.935,0a.27.27,0,0,1,0,.33q-2.967.072-5.935,0Z" fill="#fff"/><path d="M285.136,3305.79l0-.318h5.935v.318Z" fill="#fff"/><path d="M291.068,3305.791v-.318h5.705v.32Z" fill="#fff"/><path d="M318.026,3305.474v.316l-5.462.011v-.331Z" fill="#fff"/><path d="M296.773,3305.794v-.32h4.037v.323Z" fill="#fff"/><path d="M312.563,3305.47v.331l-3.206.006,0-.339Z" fill="#fff"/><path d="M309.354,3305.468l0,.339-2.614,0a.27.27,0,0,0,0-.33Z" fill="#fff"/><path d="M303.294,3266.4l-.006.32-6.645,0,0-.312Z" fill="#fff"/><path d="M252.35,3266.4l5.937,0,0,.312-5.933,0Z" fill="#fff"/><path d="M252.35,3266.4l.006.317-5.47.007,0-.328Z" fill="#fff"/><path d="M296.646,3266.4l0,.312-5.344,0,0-.316Z" fill="#fff"/><path d="M282.394,3266.4l4.751,0v.317l-4.75.01Z" fill="#fff"/><path d="M258.289,3266.715l0-.312,4.631,0v.319Z" fill="#fff"/><path d="M262.918,3266.72v-.319l4.394,0v.332Z" fill="#fff"/><path d="M287.144,3266.719v-.317H291.3l0,.316Z" fill="#fff"/><path d="M272.659,3266.4h3.794l0,.334h-3.8Z" fill="#fff"/><path d="M282.394,3266.4v.33l-2.969.006,0-.338Z" fill="#fff"/><path d="M279.423,3266.4l0,.338-2.969,0,0-.334Z" fill="#fff"/><path d="M267.312,3266.73v-.332l2.971,0,0,.341Z" fill="#fff"/><path d="M270.28,3266.737l0-.341,2.376,0,0,.335Z" fill="#fff"/><path d="M345.928,3305.795l.006-.326q3.96-.006,7.922-.016c.241,0,.453.009.37.345Z" fill="#fff"/><path d="M265.3,3305.789l-4.376.006c-.066-.269.06-.344.311-.341,1.354.012,2.707.014,4.061.02Z" fill="#fff"/><path d="M241.3,3266.725l-6.274,0c-.081-.337.134-.341.372-.34q2.951.01,5.9.014Z" fill="#fff"/><path d="M320.394,3266.41c0,.1-.007.205-.01.307l-5.568.01,0-.331Z" fill="#fff"/><path d="M314.818,3266.4l0,.331h-5.344v-.332Z" fill="#fff"/><path d="M297.013,3258.36a2.809,2.809,0,0,0,1.179.181l1.3.258,0,.186-1.168-.038a5.969,5.969,0,0,0-1.315-.037l-.59-.026c-.137-.132-.327-.053-.513-.137l.286-.348,0-.051a.209.209,0,0,0,.108-.035Z" fill="#fff"/><path d="M297,3258.91a5.969,5.969,0,0,1,1.315.037l-.112.622c-.55-.229-.394.373-.619.526l-.122-.225a4.98,4.98,0,0,1-.108-.549c-.042-.478-.237-.025-.35-.063Z" fill="#fff"/><path d="M300.661,3260.782l-.219.048-.35-.144a.606.606,0,0,1,.155-.618.508.508,0,0,1,.553.168A.619.619,0,0,1,300.661,3260.782Z" fill="#fff"/><path d="M299.486,3258.985l0-.186,1.035.131A2.286,2.286,0,0,1,299.486,3258.985Z" fill="#fff"/><path d="M294.99,3257.6l2.151-.878c-.081.283.106.613-.146.867-.567-.083-.614.341-.7.722a.209.209,0,0,1-.108.035,2.014,2.014,0,0,0-.72-.053C295.669,3257.816,295.338,3257.7,294.99,3257.6Z" fill="#fff"/><path d="M296.291,3258.313c.09-.381.137-.8.7-.722l.258.15-.24.619Z" fill="#fff"/><path d="M288.568,3260.785l-.83-.006-.788-.134-.786-.317.014-.033-.022-.026a2.514,2.514,0,0,0,.873.05,5.16,5.16,0,0,0,1.19-.015,3.4,3.4,0,0,0,1-.121,10.865,10.865,0,0,0,1.315-.252,6.745,6.745,0,0,0,1.871-.557l.494.011a9.307,9.307,0,0,1-3.178,1.225Z" fill="#fff"/><path d="M292.9,3259.385l-.494-.011a2.783,2.783,0,0,1-1.107-.242c.451-.247.8-.7,1.365-.718.12.008.243.025.3-.123l0,.007c.259.008.434.073.293.389-.1.229-.19.464-.284.7l-.032.027Z" fill="#fff"/><path d="M292.968,3259.384c.094-.233.182-.468.284-.7.141-.316-.034-.381-.293-.389a1.827,1.827,0,0,1,.779-.238c.382-.034.639.092.66.518l-.221.188a1.074,1.074,0,0,0-.262.618l-.719.019Z" fill="#fff"/><path d="M297.606,3254.272c-.021.164.048.353-.132.472a.419.419,0,0,0-.1.016.657.657,0,0,1,.221-.5Z" fill="#fff"/><path d="M297.591,3254.26l.056-.151.041.032c-.025.045-.054.088-.082.131Z" fill="#fff"/><path d="M297.37,3254.76a.419.419,0,0,1,.1-.016c.007.1.021.2-.076.271l-.046-.044Z" fill="#fff"/><path d="M297,3258.91l0,.348c-.049.279-.1.558-.146.837a.534.534,0,0,0-.693-.175,1.8,1.8,0,0,1,.245-1.036Z" fill="#fff"/><path d="M296.168,3259.92a.534.534,0,0,1,.693.175c.149.417-.227.555-.422.789l-.378-.24-.092-.113A.745.745,0,0,1,296.168,3259.92Z" fill="#fff"/><path d="M294.177,3258.766l.221-.188,1.065-.283a2.014,2.014,0,0,1,.72.053l0,.051A12.114,12.114,0,0,1,294.177,3258.766Z" fill="#fff"/><path d="M338.864,3301.349l-.154.025c.011-.046.021-.091.031-.137Z" fill="#fff"/><path d="M298.786,3309.847c-.038.386.11.791-.122,1.157l-.477.016,0-1.172Z" fill="#fff"/><path d="M298.786,3309.847h-.6l-.361.013-.131-.072c.1-.133.247-.03.364-.074.373.088.705-.168,1.073-.126.109.026.284-.016.307.109.031.166-.14.142-.248.148C299.059,3309.852,298.922,3309.847,298.786,3309.847Z" fill="#fff"/><path d="M298.187,3311.02l.477-.016c.078.291-.189.068-.243.162l-.713.006c.024-.137.144-.132.24-.161Z" fill="#fff"/><path d="M299.722,3309.7l.407.057c-.123.154-.285.058-.406.113C299.626,3309.813,299.623,3309.756,299.722,3309.7Z" fill="#fff"/><path d="M299.735,3311.006l-.131.169-.261-.073C299.444,3310.95,299.607,3311.048,299.735,3311.006Z" fill="#fff"/><path d="M301.4,3310.736l-.057.095c-.017-.032-.049-.064-.049-.095s.032-.064.05-.1Z" fill="#fff"/><path d="M297.465,3259.87l.122.225a.864.864,0,0,1-.393.966A2.551,2.551,0,0,1,297.465,3259.87Z" fill="#fff"/><path d="M289.045,3316.011l-.04.09-.121-.09C288.938,3315.945,288.991,3315.945,289.045,3316.011Z" fill="#fff"/><path d="M288.72,3315.1c-.03.04-.061.089-.107.021-.006-.008.036-.048.056-.073C288.685,3315.065,288.7,3315.082,288.72,3315.1Z" fill="#fff"/><path d="M288.669,3315.047c.032-.031.06-.093.107-.021.005.008-.036.048-.056.073C288.7,3315.082,288.685,3315.065,288.669,3315.047Z" fill="#fff"/><path d="M284.58,3254.692l-.131-.152a.157.157,0,0,1,.234.051Z" fill="#fff"/><path d="M288.448,3256.98c-.452.04-.846-.272-1.3-.213a1.718,1.718,0,0,1,.246-.742l.368.053c.24.189.6.089.818.324C288.374,3256.558,288.477,3256.784,288.448,3256.98Z" fill="#fff"/><path d="M287.046,3257.27l1.162.231-.116.666a2.88,2.88,0,0,1-1.172-.238Z" fill="#fff"/><path d="M286.314,3257.712a.589.589,0,0,1-.489-.466l.136-.243.474-.365C286.505,3257.008,286.28,3257.345,286.314,3257.712Z" fill="#fff"/><path d="M286.435,3256.638l-.474.365v-.593a1.574,1.574,0,0,1,.586-.384l-.108.506c0,.037-.007.075-.009.113Z" fill="#fff"/><path d="M286.429,3256.645c0-.038.005-.076.009-.113a.7.7,0,0,1,.038.084C286.477,3256.621,286.445,3256.635,286.429,3256.645Z" fill="#fff"/><path d="M298.187,3311.02l-.239-.009a3.331,3.331,0,0,1-.118-1.15l.361-.013Z" fill="#fff"/><path d="M292.975,3309.688l-.006-.014.719-.163a.594.594,0,0,0,.015.783.957.957,0,0,0-.1.016c-.107.008-.237-.035-.276.123l-.012,0C292.746,3310.387,293.033,3309.959,292.975,3309.688Z" fill="#fff"/><path d="M292.373,3309.781l.177.058-.053.989A1.917,1.917,0,0,1,292.373,3309.781Z" fill="#fff"/><path d="M296.3,3310.319c.048-.121.151-.118.255-.114l-.012.124Z" fill="#fff"/><path d="M287.029,3260.319a2.514,2.514,0,0,1-.873-.05c-.624-.277.057-.455.05-.685l.831.075Z" fill="#fff"/><path d="M282.849,3253.405l.479.175.018.331-.236-.027c-.083-.247-.179-.205-.311-.028-.083.112.052.448-.261.318-.236-.1-.151-.327-.088-.519.025-.074.037-.152.055-.229Z" fill="#fff"/><path d="M283.11,3253.884l.236.027a1.366,1.366,0,0,1-.359,1.168l-.233,0-.038-.243.01-.206C283.11,3254.511,283.033,3254.157,283.11,3253.884Z" fill="#fff"/><path d="M293.7,3310.294a.594.594,0,0,1-.015-.783l.057-.012.056.015.005.778-.051.013Z" fill="#fff"/><path d="M293.8,3309.514l-.056-.015-.057.012-.719.163c-.069-.215.187-.183.235-.309l.6-.009C293.931,3309.41,293.9,3309.463,293.8,3309.514Z" fill="#fff"/><path d="M255.9,3286.856c.2.012.107.124.074.216Z" fill="#fff"/><path d="M285.338,3255.689l.153.233c-.276.023-.233.263-.3.433-.091.246-.113.544-.445.617l.021-.464,0-.7Z" fill="#fff"/><path d="M284.773,3255.808l0,.7c-.1.059-.207.18-.288.163-.151-.031-.086-.2-.063-.3C284.474,3256.153,284.313,3255.779,284.773,3255.808Z" fill="#fff"/><path d="M285.96,3256.41V3257l-.136.243-.331.159c-.371-.492-.016-.99-.01-1.485C285.668,3256.059,285.676,3256.368,285.96,3256.41Z" fill="#fff"/><path d="M293.323,3310.433c.039-.158.169-.115.276-.123A.242.242,0,0,1,293.323,3310.433Z" fill="#fff"/><path d="M282.716,3254.832l.038.243c-.061.1-.151.156-.208.021S282.6,3254.88,282.716,3254.832Z" fill="#fff"/><path d="M291.3,3259.132a2.783,2.783,0,0,0,1.107.242,6.745,6.745,0,0,1-1.871.557,10.865,10.865,0,0,1-1.315.252,1.928,1.928,0,0,0,.18-.7A4.99,4.99,0,0,1,291.3,3259.132Z" fill="#fff"/><path d="M288.924,3257.568l.045-.49a1.287,1.287,0,0,0,.075-.67c.75-.029.8.021.658.713-.043.21-.123.415-.147.626-.054.485-.306.641-.762.508Z" fill="#fff"/><path d="M295.463,3258.295l-1.065.283c-.021-.426-.278-.552-.66-.518a3.6,3.6,0,0,1,1.252-.458C295.338,3257.7,295.669,3257.816,295.463,3258.295Z" fill="#fff"/><path d="M287.029,3260.319l.008-.66,1.182-.028v.673A5.16,5.16,0,0,1,287.029,3260.319Z" fill="#fff"/><path d="M288.219,3260.3v-.673l1.183-.143a1.928,1.928,0,0,1-.18.7A3.4,3.4,0,0,1,288.219,3260.3Z" fill="#fff"/><path d="M289.044,3256.408a1.287,1.287,0,0,1-.075.67l-.521-.1c.029-.2-.074-.422.131-.578Z" fill="#fff"/><path d="M288.924,3257.568l-.131.687a.382.382,0,0,1-.341-.063l.023-.641Z" fill="#fff"/><path d="M288.475,3257.551l-.023.641-.36-.025.116-.666Z" fill="#fff"/><path d="M292.964,3258.291c-.055.148-.178.131-.3.123C292.729,3258.285,292.845,3258.285,292.964,3258.291Z" fill="#fff"/></g></svg>