<svg xmlns="http://www.w3.org/2000/svg" xmlns:xlink="http://www.w3.org/1999/xlink" width="60" height="60" viewBox="0 0 60 60"><defs><linearGradient id="a" x1="0.5" x2="0.5" y2="1" gradientUnits="objectBoundingBox"><stop offset="0" stop-color="#4ac14b"/><stop offset="1" stop-color="#06853a"/></linearGradient></defs><g transform="translate(585.559 -131.512)"><path d="M-537.124,148.957a25.92,25.92,0,0,0-25.994,25.793,25.524,25.524,0,0,0,4.951,15.122l-3.246,9.577,9.987-3.173a25.992,25.992,0,0,0,14.3,4.264,25.922,25.922,0,0,0,25.991-25.79,25.922,25.922,0,0,0-25.991-25.793Z" transform="translate(-17.738 -13.789)" fill-rule="evenodd" fill="url(#a)"/><g transform="translate(-585.559 131.512)"><path d="M-525.559,160.74a29.341,29.341,0,0,1-29.453,29.226,29.484,29.484,0,0,1-14.238-3.637l-16.308,5.183,5.316-15.68a28.922,28.922,0,0,1-4.225-15.092,29.342,29.342,0,0,1,29.456-29.228,29.341,29.341,0,0,1,29.453,29.228Zm-29.453-24.573a24.694,24.694,0,0,0-24.765,24.573,24.317,24.317,0,0,0,4.717,14.408l-3.093,9.124,9.515-3.023a24.763,24.763,0,0,0,13.626,4.063A24.7,24.7,0,0,0-530.25,160.74a24.7,24.7,0,0,0-24.763-24.573Zm14.873,31.305c-.183-.3-.664-.478-1.383-.837s-4.274-2.093-4.935-2.33-1.146-.358-1.624.358-1.866,2.331-2.288,2.809-.84.537-1.563.179a19.755,19.755,0,0,1-5.808-3.554,21.791,21.791,0,0,1-4.017-4.962c-.419-.716-.042-1.1.316-1.461.326-.323.723-.837,1.084-1.253a4.908,4.908,0,0,0,.722-1.2,1.3,1.3,0,0,0-.062-1.253c-.179-.358-1.624-3.883-2.227-5.319s-1.2-1.378-1.624-1.378a10.411,10.411,0,0,0-1.2.125,4.079,4.079,0,0,0-2.108.9,8.008,8.008,0,0,0-2.526,5.973c0,3.525,2.585,6.933,2.946,7.408s4.993,7.949,12.334,10.818,7.341,1.911,8.665,1.79,4.271-1.732,4.873-3.4a5.954,5.954,0,0,0,.423-3.405Zm0,0" transform="translate(585.559 -131.512)" fill="#fff" fill-rule="evenodd"/></g></g></svg>